<svg width="160" height="24" viewBox="0 0 160 24" fill="none" xmlns="http://www.w3.org/2000/svg">
<path d="M14.1795 10.7089C14.1901 10.7501 14.228 10.7787 14.2711 10.7787H15.076C15.1282 10.7787 15.1705 10.7372 15.1705 10.6859V8.08172C15.1705 8.0423 15.1961 8.00719 15.234 7.99393L15.9897 7.73416C16.0097 7.72735 16.032 7.72735 16.0521 7.73416L16.8077 7.99393C16.8457 8.00683 16.8712 8.04195 16.8712 8.08172V10.6859C16.8712 10.7372 16.9136 10.7787 16.9657 10.7787H17.7707C17.8137 10.7787 17.8517 10.7501 17.8623 10.7089L18.6562 7.66536C18.6632 7.63885 18.6577 7.6109 18.6416 7.58868L18.3888 7.23897C18.3775 7.2232 18.3614 7.21138 18.3428 7.20493L16.0517 6.41665C16.0316 6.40984 16.0094 6.40984 15.9893 6.41665L13.6982 7.20493C13.6796 7.21138 13.6636 7.2232 13.6522 7.23897L13.3994 7.58868C13.3833 7.6109 13.3779 7.6392 13.3848 7.66536L14.1795 10.7089ZM16.186 6.93691C16.186 6.87278 16.2502 6.82799 16.3119 6.84913L18.1352 7.47653C18.1538 7.48298 18.1695 7.4948 18.1808 7.51021L18.2844 7.65318C18.3005 7.67539 18.3059 7.7037 18.299 7.73022L17.6065 10.3853C17.5959 10.4265 17.5579 10.4552 17.5149 10.4552H17.296C17.2438 10.4552 17.2015 10.4136 17.2015 10.3624V7.8524C17.2015 7.81299 17.1759 7.77787 17.1383 7.76461L16.2498 7.45897C16.2119 7.44607 16.1867 7.41096 16.1867 7.37119L16.186 6.93691ZM13.7577 7.65318L13.8613 7.51021C13.8726 7.49445 13.8887 7.48262 13.9069 7.47653L15.7302 6.84913C15.7919 6.82799 15.8561 6.87278 15.8561 6.93691V7.37119C15.8561 7.4106 15.8306 7.44572 15.793 7.45897L14.9045 7.76461C14.8666 7.77751 14.8414 7.81263 14.8414 7.8524V10.3624C14.8414 10.4136 14.7991 10.4552 14.7469 10.4552H14.528C14.4849 10.4552 14.447 10.4265 14.4364 10.3853L13.7438 7.73022C13.7369 7.7037 13.7416 7.67575 13.7577 7.65318Z" fill="white"/>
<path d="M26.0516 17.9661L22.6619 13.15C22.6174 13.0866 22.5178 13.1013 22.4941 13.1744L22.0898 14.417V14.4188L21.2119 17.075H17.9597C17.9287 17.075 17.8995 17.0599 17.882 17.0348L17.6181 16.6601C17.6072 16.6446 17.6014 16.626 17.6014 16.6074V16.4963C17.6014 16.4451 17.6437 16.4035 17.6959 16.4035H20.8787C20.9203 16.4035 20.9572 16.3766 20.9692 16.3376L22.1463 12.5015C22.1547 12.4739 22.15 12.4445 22.1328 12.4209L19.1634 8.31032C19.1167 8.24582 19.0145 8.26446 18.9948 8.34114L18.3895 10.6626C18.3742 10.7214 18.4194 10.7784 18.4811 10.7784H19.5257C19.5564 10.7784 19.5852 10.7931 19.6027 10.8174L19.9125 11.246C19.957 11.3076 19.9125 11.3925 19.8355 11.3925H18.3377C18.2855 11.3925 18.2432 11.4341 18.2432 11.4853V12.4768C18.2432 12.528 18.2855 12.5696 18.3377 12.5696H20.396C20.4595 12.5696 20.5047 12.6298 20.4865 12.6892L20.3281 13.2049C20.3161 13.2439 20.2792 13.2708 20.2376 13.2708H18.0027C17.9746 13.2708 17.948 13.283 17.9301 13.3041L17.1613 14.2085C17.1099 14.269 17.1537 14.3608 17.2339 14.3608H19.8585C19.922 14.3608 19.9673 14.421 19.949 14.4804L19.7874 15.0075C19.7753 15.0466 19.7385 15.0734 19.6969 15.0734H17.366C17.3138 15.0734 17.2715 15.115 17.2715 15.1663V16.7077C17.2715 16.7267 17.2773 16.745 17.2883 16.7604L17.709 17.358C17.7265 17.3831 17.7557 17.3982 17.7867 17.3982H24.3644C24.4407 17.3982 24.4856 17.314 24.4422 17.2527L22.4817 14.4675C22.4652 14.4443 22.4605 14.4149 22.4689 14.388L22.6137 13.9157C22.6367 13.8412 22.7371 13.8258 22.7819 13.8896L25.4226 17.6411C25.466 17.7027 25.4211 17.7866 25.3449 17.7866H17.4186C17.3875 17.7866 17.3584 17.7715 17.3408 17.7465L16.7796 16.9492C16.7687 16.9338 16.7629 16.9152 16.7629 16.8965V15.1659C16.7629 15.1147 16.7205 15.0731 16.6684 15.0731H15.3738C15.3216 15.0731 15.2793 15.1147 15.2793 15.1659V16.8965C15.2793 16.9155 15.2734 16.9338 15.2625 16.9492L14.7013 17.7465C14.6838 17.7715 14.6546 17.7866 14.6236 17.7866H6.69688C6.62062 17.7866 6.57574 17.7024 6.61916 17.6407L9.25981 13.8892C9.30469 13.8251 9.4054 13.8409 9.42802 13.9154L9.57288 14.3876C9.58127 14.4149 9.57653 14.4439 9.56011 14.4672L7.59996 17.2523C7.55654 17.314 7.60142 17.3978 7.67768 17.3978H14.2554C14.2864 17.3978 14.3156 17.3828 14.3331 17.3577L14.7538 16.76C14.7648 16.7446 14.7706 16.726 14.7706 16.7073V15.1659C14.7706 15.1147 14.7283 15.0731 14.6761 15.0731H12.3452C12.3036 15.0731 12.2668 15.0462 12.2548 15.0072L12.0931 14.4801C12.0749 14.4206 12.1201 14.3604 12.1836 14.3604H14.8082C14.8885 14.3604 14.9323 14.2687 14.8808 14.2081L14.112 13.3037C14.0941 13.2826 14.0675 13.2704 14.0394 13.2704H11.8045C11.7629 13.2704 11.726 13.2436 11.714 13.2045L11.5556 12.6889C11.5374 12.6294 11.5826 12.5692 11.6461 12.5692H13.7044C13.7566 12.5692 13.7989 12.5276 13.7989 12.4764V11.485C13.7989 11.4337 13.7566 11.3922 13.7044 11.3922H12.2066C12.13 11.3922 12.0851 11.3072 12.1296 11.2456L12.4394 10.8171C12.4573 10.7927 12.4857 10.778 12.5164 10.778H13.561C13.6227 10.778 13.6679 10.7207 13.6526 10.6623L13.0473 8.34078C13.0272 8.2641 12.925 8.24547 12.8787 8.30996L9.9093 12.4205C9.89251 12.4438 9.88741 12.4735 9.8958 12.5011L11.0729 16.3372C11.0849 16.3763 11.1218 16.4031 11.1634 16.4031H14.3463C14.3984 16.4031 14.4408 16.4447 14.4408 16.4959V16.607C14.4408 16.626 14.4349 16.6443 14.424 16.6597L14.1602 17.0345C14.1427 17.0596 14.1135 17.0746 14.0824 17.0746H10.8303L9.95235 14.4185V14.4167L9.54807 13.174C9.52435 13.1006 9.42474 13.0863 9.38022 13.1497L6.02222 17.9209C5.9653 18.0016 6.02441 18.1116 6.12402 18.1116H14.7965C14.8275 18.1116 14.8567 18.0965 14.8742 18.0714L15.5923 17.0513C15.6033 17.0359 15.6091 17.0173 15.6091 16.9987V15.4909C15.6091 15.4396 15.6514 15.3981 15.7036 15.3981H16.3389C16.3911 15.3981 16.4334 15.4396 16.4334 15.4909V16.9987C16.4334 17.0176 16.4392 17.0359 16.4502 17.0513L17.1682 18.0714C17.1858 18.0965 17.215 18.1116 17.246 18.1116H25.9739C26.0502 18.1116 26.0951 18.0274 26.0516 17.9661ZM17.601 15.4912C17.601 15.44 17.6433 15.3984 17.6955 15.3984H19.9413C19.9829 15.3984 20.0198 15.3716 20.0318 15.3325L20.3923 14.158C20.4106 14.0985 20.3653 14.0383 20.3018 14.0383H17.9381C17.8579 14.0383 17.8141 13.9466 17.8655 13.886L18.0837 13.6291C18.1016 13.608 18.1283 13.5958 18.1563 13.5958H20.4821C20.5237 13.5958 20.5605 13.5689 20.5726 13.5298L20.9294 12.3668C20.9477 12.3073 20.9024 12.2471 20.839 12.2471H18.6665C18.6143 12.2471 18.5719 12.2055 18.5719 12.1543V11.8107C18.5719 11.7594 18.6143 11.7179 18.6665 11.7179H20.4726C20.5492 11.7179 20.5941 11.6329 20.5496 11.5713L19.772 10.4949C19.7542 10.4706 19.7257 10.4559 19.6951 10.4559H18.9051C18.8434 10.4559 18.7982 10.3986 18.8135 10.3402L19.1371 9.10004C19.1572 9.02336 19.2594 9.00473 19.3057 9.06922L21.7701 12.4803C21.7869 12.5036 21.792 12.5334 21.7836 12.561L20.7237 16.0147C20.7116 16.0538 20.6748 16.0807 20.6332 16.0807H17.6951C17.643 16.0807 17.6006 16.0391 17.6006 15.9879L17.601 15.4912ZM21.9737 15.8177L22.8589 17.0757H21.5578L21.9737 15.8177ZM23.8135 16.9299C23.8569 16.9915 23.812 17.0757 23.7357 17.0757H23.2592C23.2581 17.0735 23.257 17.0714 23.2556 17.0692L22.1095 15.4407C22.1073 15.4375 22.1044 15.4346 22.1014 15.4318L22.3113 14.7965L23.8135 16.9299ZM14.3463 16.0799H11.4082C11.3666 16.0799 11.3298 16.0531 11.3177 16.014L10.2578 12.5603C10.2494 12.5327 10.2541 12.5033 10.2713 12.4796L12.7357 9.06851C12.7824 9.00401 12.8845 9.02264 12.9042 9.09932L13.2275 10.3394C13.2429 10.3982 13.1976 10.4552 13.1359 10.4552H12.346C12.3153 10.4552 12.2865 10.4699 12.269 10.4942L11.4914 11.5706C11.4469 11.6322 11.4914 11.7171 11.5684 11.7171H13.3746C13.4268 11.7171 13.4691 11.7587 13.4691 11.8099V12.1536C13.4691 12.2048 13.4268 12.2464 13.3746 12.2464H11.2021C11.1386 12.2464 11.0933 12.3066 11.1116 12.366L11.4684 13.5291C11.4805 13.5682 11.5173 13.5951 11.5589 13.5951H13.8847C13.9128 13.5951 13.9394 13.6072 13.9573 13.6284L14.1755 13.8853C14.2269 13.9458 14.1832 14.0376 14.1029 14.0376H11.7392C11.6757 14.0376 11.6304 14.0978 11.6487 14.1572L12.0092 15.3318C12.0212 15.3708 12.0581 15.3977 12.0997 15.3977H14.3459C14.3981 15.3977 14.4404 15.4393 14.4404 15.4905V15.9864C14.4404 16.0377 14.3984 16.0799 14.3463 16.0799ZM8.22865 16.9299L9.73051 14.7961L9.94031 15.4314C9.93776 15.4343 9.93484 15.4371 9.93229 15.4404L8.78619 17.0689C8.78473 17.071 8.78364 17.0732 8.78254 17.0753H8.30637C8.23011 17.0753 8.18523 16.9915 8.22865 16.9299ZM9.18282 17.0753L10.068 15.8177L10.4836 17.0753H9.18282Z" fill="white"/>
<path d="M14.3295 6.59365L15.99 6.02286C16.0101 6.01605 16.0324 6.01605 16.0524 6.02286L17.7127 6.59365C17.7995 6.62339 17.8743 6.52593 17.821 6.45212L16.0981 4.06756C16.0605 4.01524 15.9817 4.01524 15.9437 4.06756L14.2207 6.45212C14.1675 6.52593 14.2426 6.62339 14.3295 6.59365ZM15.0888 5.8111L15.9441 4.62724C15.9817 4.57492 16.0605 4.57492 16.0984 4.62724L16.9537 5.8111C17.007 5.88491 16.9322 5.98237 16.8453 5.95263L16.0524 5.67996C16.0324 5.67315 16.0101 5.67315 15.99 5.67996L15.1972 5.95263C15.1103 5.98237 15.0355 5.88491 15.0888 5.8111Z" fill="white"/>
<path d="M17.5747 11.3474H14.4619V11.8314H15.7613V14.3776H16.275V12.3026L15.8215 11.8314H17.5747V11.3474Z" fill="white"/>
<path d="M39.7361 10.6047H48.914C49.5431 10.6047 49.9454 10.0278 49.9454 9.50477C49.9454 8.98177 49.5431 8.41864 48.914 8.41864H39.7361V6.71546H48.914C50.8566 6.71546 51.8078 8.32458 51.8078 9.50351C51.8078 10.5633 51.1511 11.7962 49.691 12.1988L49.597 12.2251L51.9018 16.1808H49.785L47.5203 12.3066H41.6123V16.1808H39.7361V10.6034V10.6047Z" fill="white"/>
<path d="M54.6465 6.73052V16.182H52.7704V6.73052H54.6465Z" fill="white"/>
<path d="M69.8791 9.72049C69.8791 8.44624 70.9106 6.73052 72.9735 6.73052H78.8414C80.9044 6.73052 81.9358 8.44624 81.9358 9.72049V13.1933C81.9358 14.4676 80.9044 16.1971 78.8414 16.1971H72.9735C71.7277 16.1971 70.8028 15.4998 70.3077 14.736L70.1598 14.4952H78.8414C79.6047 14.4952 80.0734 13.8116 80.0734 13.1946V9.72174C80.0734 9.10468 79.6047 8.42116 78.8414 8.42116H72.9735C72.2102 8.42116 71.7415 9.10468 71.7415 9.72174V13.3288H69.8791V9.72049Z" fill="white"/>
<path d="M58.2773 6.73052V11.5165L65.5653 6.73052H68.7399L58.2761 13.6085V16.1958H56.3999V6.73052H58.2773ZM62.5649 12.1335L64.0789 11.1415L68.6208 16.1958H66.2095L62.5649 12.1335Z" fill="white"/>
<path d="M38.2659 8.47633H26.0688V6.64899H38.2659V8.47633Z" fill="white"/>
<path d="M33.1738 16.2523H31.161V8.24055L33.1738 10.2548V16.2523Z" fill="white"/>
<path d="M52.0209 16.251H49.7449L47.4802 12.3769H41.6799V16.251H39.6659V10.5357H48.9127C49.488 10.5357 49.8752 10.0027 49.8752 9.50477C49.8752 9.00686 49.488 8.48763 48.9127 8.48763H39.6659V6.64648H48.9127C50.9343 6.64648 51.8755 8.35217 51.8755 9.50351C51.8755 10.5809 51.205 11.8526 49.7086 12.2652L49.701 12.2677L52.0209 16.2498V16.251Z" fill="white"/>
<path d="M54.7155 16.251H52.7014V6.66153H54.7155V16.251Z" fill="white"/>
<path d="M68.775 16.2648H66.1781L62.4596 12.1197L64.0901 11.0512L68.775 16.2648ZM58.3463 16.2648H56.3322V6.66153H58.3463V11.3886L65.5452 6.66153H68.9717L58.3463 13.6461V16.2648Z" fill="white"/>
<path d="M93.9938 16.251C93.7519 16.251 93.5163 16.172 93.3471 16.0341L84.8046 9.52358V16.251H82.7906V7.58838C82.7906 7.21463 83.1102 6.66153 83.797 6.66153C84.0364 6.66153 84.2695 6.73804 84.455 6.876L93 13.3877V6.66028H95.0002V15.3229C95.0002 15.6967 94.6806 16.2498 93.9938 16.2498V16.251Z" fill="white"/>
<path d="M98.7978 15.625V7.28991H104.347V8.64734H100.37V10.6716H103.561V12.029H100.37V14.2557H104.478V15.625H98.7978ZM108.173 15.7203C106.303 15.7203 105.124 14.339 105.124 12.6244C105.124 10.9097 106.303 9.52848 108.173 9.52848C109.685 9.52848 110.911 10.4334 111.042 11.8147H109.589C109.482 11.2193 108.899 10.7906 108.208 10.7906C107.196 10.7906 106.648 11.5765 106.648 12.6244C106.648 13.6722 107.208 14.4581 108.232 14.4581C108.923 14.4581 109.459 14.0651 109.601 13.4698H111.078C110.887 14.7796 109.72 15.7203 108.173 15.7203ZM114.838 15.7203C113.004 15.7203 111.694 14.4105 111.694 12.6244C111.694 10.8383 113.004 9.52848 114.838 9.52848C116.66 9.52848 117.969 10.8383 117.969 12.6244C117.969 14.4105 116.66 15.7203 114.838 15.7203ZM114.838 14.4581C115.826 14.4581 116.493 13.7079 116.493 12.6244C116.493 11.5408 115.826 10.7906 114.838 10.7906C113.838 10.7906 113.171 11.5408 113.171 12.6244C113.171 13.7079 113.838 14.4581 114.838 14.4581ZM121.067 15.7203C119.614 15.7203 118.65 14.9106 118.578 13.6246H119.912C119.971 14.1961 120.412 14.5533 121.067 14.5533C121.638 14.5533 122.019 14.2676 122.019 13.9104C122.019 12.5767 118.733 13.8508 118.733 11.3146C118.733 10.2667 119.65 9.52848 120.888 9.52848C122.293 9.52848 123.258 10.3024 123.317 11.4694H121.984C121.9 10.9097 121.388 10.6239 120.924 10.6239C120.4 10.6239 120.055 10.8621 120.055 11.2669C120.055 12.5648 123.389 11.136 123.389 13.8508C123.389 14.982 122.472 15.7203 121.067 15.7203ZM129.58 9.62373L127.484 15.3392L126.556 18.0541H125.162L126.008 15.625L123.817 9.62373H125.305L126.698 13.7437L128.08 9.62373H129.58ZM132.346 15.7203C130.893 15.7203 129.929 14.9106 129.857 13.6246H131.191C131.251 14.1961 131.691 14.5533 132.346 14.5533C132.918 14.5533 133.299 14.2676 133.299 13.9104C133.299 12.5767 130.012 13.8508 130.012 11.3146C130.012 10.2667 130.929 9.52848 132.167 9.52848C133.573 9.52848 134.537 10.3024 134.597 11.4694H133.263C133.18 10.9097 132.668 10.6239 132.203 10.6239C131.679 10.6239 131.334 10.8621 131.334 11.2669C131.334 12.5648 134.668 11.136 134.668 13.8508C134.668 14.982 133.751 15.7203 132.346 15.7203ZM136.348 7.81383H137.812V9.62373H139.479V10.8502H137.812V13.4698C137.812 14.0771 138.134 14.3866 138.681 14.3866H139.479V15.625H138.515C137.205 15.625 136.348 14.8629 136.348 13.5293V10.8502H135.169V9.62373H136.348V7.81383ZM144.427 13.6246H145.856C145.63 14.8987 144.511 15.7203 143.034 15.7203C141.069 15.7203 139.974 14.1723 139.974 12.6006C139.974 11.0169 140.95 9.52848 142.915 9.52848C144.927 9.52848 145.832 10.9931 145.832 12.4219C145.832 12.6244 145.82 12.803 145.809 12.922H141.379C141.486 13.8865 142.105 14.5057 143.034 14.5057C143.784 14.5057 144.273 14.1961 144.427 13.6246ZM142.915 10.6239C142.093 10.6239 141.57 11.0526 141.415 11.9576H144.368C144.308 11.1955 143.784 10.6239 142.915 10.6239ZM146.842 15.625V9.62373H148.307V10.5644C148.604 9.95714 149.2 9.52848 150.045 9.52848C150.998 9.52848 151.653 9.93332 151.915 10.6716C152.189 10.0524 152.951 9.52848 153.903 9.52848C155.201 9.52848 156.035 10.4692 156.035 11.7432V15.625H154.582V12.1838C154.582 11.3384 154.141 10.7787 153.439 10.7787C152.653 10.7787 152.165 11.3384 152.165 12.1838V15.625H150.712V12.1838C150.712 11.3384 150.271 10.7787 149.569 10.7787C148.795 10.7787 148.307 11.3384 148.307 12.1838V15.625H146.842Z" fill="white"/>
</svg>
