<?xml version="1.0" standalone="no"?>
<!DOCTYPE svg PUBLIC "-//W3C//DTD SVG 20010904//EN"
 "http://www.w3.org/TR/2001/REC-SVG-20010904/DTD/svg10.dtd">
<svg version="1.0" xmlns="http://www.w3.org/2000/svg"
 width="7680.000000pt" height="4320.000000pt" viewBox="0 0 7680.000000 4320.000000"
 preserveAspectRatio="xMidYMid meet">

<g transform="translate(0.000000,4320.000000) scale(0.100000,-0.100000)"
fill="#000000" stroke="none">
<path d="M0 21600 l0 -21600 38400 0 38400 0 0 21600 0 21600 -38400 0 -38400
0 0 -21600z m23966 15832 c18 -12 816 -1122 821 -1142 3 -12 -3 -24 -19 -34
-22 -14 -44 -8 -413 119 -215 74 -400 135 -411 135 -12 0 -198 -61 -414 -135
-413 -142 -430 -146 -430 -91 0 18 541 782 781 1104 37 49 60 61 85 44z m528
-1288 l542 -186 68 -95 69 -95 -188 -722 c-103 -396 -192 -727 -197 -733 -14
-18 -419 -18 -436 -1 -9 9 -12 163 -12 633 0 580 -1 623 -17 637 -10 8 -99 43
-198 77 l-181 62 -179 -62 c-99 -33 -188 -65 -197 -70 -17 -9 -18 -50 -18
-634 0 -554 -2 -625 -16 -639 -13 -14 -47 -16 -217 -16 -111 0 -208 4 -215 9
-7 4 -98 334 -202 732 -182 698 -189 725 -173 749 9 14 40 57 69 96 l53 71
133 47 c585 204 936 324 952 325 11 0 263 -83 560 -185z m15243 -7 c367 -75
634 -262 822 -576 278 -462 208 -1033 -174 -1416 -127 -128 -279 -222 -466
-289 l-86 -31 478 -820 478 -820 -462 -3 c-254 -1 -467 0 -473 2 -6 2 -219
362 -475 800 l-464 795 -1202 1 -1203 0 0 -800 0 -800 -415 0 -415 0 0 1185 0
1185 1950 0 c1948 0 1949 0 2005 21 154 58 265 224 265 399 0 183 -122 356
-285 406 -41 12 -330 14 -1992 14 l-1943 0 0 385 0 386 1988 -4 c1807 -3 1994
-5 2069 -20z m-4637 -362 l0 -375 -1422 0 -1423 0 368 -368 367 -367 0 -1243
0 -1242 -415 0 -415 0 0 1610 0 1610 -1055 0 -1055 0 0 375 0 375 2525 0 2525
0 0 -375z m6810 -1610 l0 -1985 -420 0 -420 0 0 1985 0 1985 420 0 420 0 0
-1985z m1500 1010 c0 -536 3 -975 6 -975 3 0 674 439 1491 975 l1484 975 706
-2 706 -3 -2197 -1444 -2196 -1443 0 -544 0 -544 -415 0 -415 0 0 1990 0 1990
415 0 415 0 0 -975z m10638 960 c37 -9 90 -29 117 -44 28 -16 844 -635 1815
-1375 l1765 -1345 3 1389 2 1390 415 0 415 0 0 -1814 c0 -1781 0 -1815 -20
-1877 -34 -110 -130 -212 -237 -253 -101 -38 -249 -32 -348 15 -24 12 -847
632 -1827 1380 l-1783 1358 -3 -1389 -2 -1390 -415 0 -415 0 2 1838 3 1837 27
57 c66 141 212 234 371 237 26 1 78 -6 115 -14z m-1950 -31 c275 -41 504 -155
697 -349 151 -151 254 -319 320 -520 54 -168 55 -179 55 -1077 0 -793 -1 -834
-20 -929 -92 -448 -412 -820 -826 -958 -209 -70 -119 -66 -1644 -66 -1291 0
-1380 1 -1460 18 -384 82 -704 311 -894 640 l-28 47 1841 0 c1832 0 1842 0
1903 21 166 56 296 201 343 384 23 91 23 1608 -1 1699 -36 140 -146 287 -260
348 -111 60 -62 58 -1449 58 -1109 0 -1278 -2 -1330 -15 -173 -45 -306 -180
-371 -375 -17 -51 -19 -111 -22 -847 l-3 -793 -384 0 -385 0 0 773 c0 820 2
866 50 1034 116 415 446 754 846 868 189 54 165 53 1593 54 1156 1 1337 -1
1429 -15z m-29560 -643 c17 -10 17 -11 173 -609 101 -392 130 -518 122 -530
-9 -15 -42 -18 -278 -22 l-268 -5 -84 -115 c-46 -63 -83 -118 -83 -122 0 -5 9
-17 20 -28 19 -19 33 -20 383 -20 269 0 366 -3 375 -12 17 -17 17 -499 0 -516
-9 -9 -135 -12 -504 -12 -458 0 -493 -1 -514 -18 l-22 -18 41 -134 c23 -73 46
-139 52 -147 9 -10 113 -13 550 -13 l538 0 55 -62 c198 -227 326 -385 326
-405 0 -12 -9 -27 -19 -33 -13 -6 -233 -10 -645 -10 -599 0 -626 -1 -635 -19
-13 -23 62 -280 87 -298 12 -10 142 -13 572 -13 419 0 559 -3 568 -12 9 -9 12
-109 12 -387 l0 -376 -95 -134 c-52 -74 -102 -142 -111 -153 -16 -17 -74 -18
-1564 -18 -1189 0 -1549 3 -1558 12 -7 7 -12 21 -12 31 0 11 207 314 461 675
418 593 461 658 456 686 -3 17 -19 77 -37 134 -27 88 -35 103 -57 108 -15 4
-30 1 -38 -7 -27 -28 -1238 -1755 -1243 -1772 -2 -9 1 -24 8 -32 11 -13 235
-15 1875 -15 1841 0 1862 0 1880 20 10 11 76 102 146 202 l129 183 0 416 c0
309 3 418 12 427 9 9 97 12 335 12 308 0 323 -1 333 -19 6 -13 10 -167 10
-433 l0 -413 138 -195 137 -195 1864 -3 c1369 -1 1867 1 1877 9 8 6 14 20 14
31 0 17 -1181 1709 -1233 1766 -23 25 -49 28 -66 9 -16 -21 -83 -246 -77 -262
2 -7 204 -296 447 -642 243 -345 451 -641 462 -656 16 -23 17 -33 8 -53 l-11
-24 -1556 2 -1557 3 -109 154 -108 155 0 364 c0 231 4 370 10 383 10 18 27 19
574 19 524 0 564 1 578 18 8 9 32 75 53 145 30 97 36 133 28 145 -9 16 -65 17
-647 22 -671 5 -655 4 -656 47 0 7 86 114 191 238 l191 225 537 0 c295 0 542
4 549 9 12 7 92 247 92 275 -1 41 5 41 -527 46 l-508 5 0 265 0 265 378 5
c467 6 449 -4 314 175 l-82 110 -267 3 c-252 2 -268 3 -278 22 -8 15 22 142
134 572 154 589 160 604 208 566 31 -25 1398 -1929 1398 -1947 0 -29 -539
-1783 -556 -1808 l-14 -23 -758 0 c-576 0 -761 -3 -770 -12 -7 -7 -12 -31 -12
-55 0 -36 10 -56 71 -143 l70 -100 768 0 768 0 123 373 c68 204 203 615 300
911 191 584 193 589 243 544 22 -20 1562 -2202 1588 -2249 6 -13 6 -25 -1 -39
-11 -20 -21 -20 -2064 -20 -1943 0 -2054 1 -2068 18 -22 25 -323 453 -336 479
-9 15 -12 128 -12 380 0 266 -3 362 -12 371 -15 15 -320 17 -349 2 -18 -10
-19 -25 -19 -380 l0 -369 -176 -251 -176 -250 -2041 0 c-1885 0 -2042 1 -2059
17 -10 9 -18 26 -18 37 1 23 1559 2243 1588 2263 45 30 47 27 261 -628 112
-343 248 -754 301 -914 l97 -290 765 -3 766 -2 30 37 c110 142 138 205 112
254 -10 19 -30 19 -768 19 -591 0 -762 3 -774 13 -19 14 -573 1810 -565 1830
9 25 1369 1903 1393 1925 28 24 33 26 52 13z m24214 -2202 c530 -590 965
-1076 966 -1080 2 -5 -237 -9 -531 -9 l-534 0 -764 852 c-420 468 -765 856
-767 862 -2 8 651 446 665 446 1 0 435 -482 965 -1071z m-22084 664 l3 -113
-413 0 -413 0 108 -108 107 -107 0 -488 0 -488 -117 3 -118 3 -3 593 -2 592
-300 0 -300 0 0 115 0 115 723 -2 722 -3 3 -112z m21294 -4592 c-2 -8 3 -18
10 -23 9 -7 7 -8 -7 -4 -11 3 -27 1 -35 -5 -13 -9 -13 -10 0 -8 34 3 43 -1 31
-14 -6 -8 -8 -17 -4 -20 3 -4 -3307 -7 -7356 -7 -4906 0 -7360 3 -7356 10 3 6
12 10 19 10 6 0 12 11 12 24 0 15 -5 22 -12 19 -10 -4 -12 10 -5 35 1 1 3310
1 7354 0 6316 -3 7352 -5 7349 -17z m-25808 -1805 c257 -126 305 -464 95 -661
-165 -155 -450 -144 -601 23 -177 196 -123 517 107 635 71 36 125 47 227 43
89 -3 105 -6 172 -40z m14277 24 c123 -38 214 -121 260 -240 31 -78 31 -212 0
-293 -41 -105 -133 -198 -233 -233 -217 -77 -445 10 -541 205 -30 61 -32 72
-32 171 1 140 24 201 109 285 89 89 172 123 302 124 45 1 96 -6 135 -19z
m12938 9 c117 -27 227 -116 279 -226 24 -52 27 -69 27 -168 0 -105 -2 -114
-33 -177 -104 -212 -357 -292 -579 -183 -261 128 -296 499 -64 677 100 77 242
107 370 77z m10438 -4 c67 -20 139 -70 180 -123 48 -63 44 -73 -37 -109 l-69
-31 -19 33 c-11 18 -37 45 -58 61 -34 27 -44 29 -120 29 -75 0 -86 -3 -126
-30 -27 -19 -54 -51 -72 -85 -26 -48 -30 -65 -30 -135 1 -89 18 -142 62 -188
95 -101 263 -93 338 15 30 43 34 43 117 2 26 -14 47 -29 47 -35 0 -41 -94
-139 -164 -170 -99 -43 -239 -42 -339 4 -151 69 -234 215 -225 396 8 175 109
311 267 362 69 22 181 24 248 4z m-36537 -226 l175 -231 3 231 2 231 85 0 85
0 0 -395 0 -395 -67 0 -68 1 -165 225 c-91 124 -171 230 -177 236 -10 8 -13
-38 -13 -226 l0 -236 -80 0 -80 0 0 395 0 395 63 0 62 0 175 -231z m1490 156
l0 -75 -185 0 -185 0 0 -85 0 -85 175 0 175 0 0 -75 0 -75 -175 0 -175 0 0
-90 0 -90 185 0 185 0 0 -70 0 -70 -265 0 -265 0 0 395 0 395 265 0 265 0 0
-75z m1398 -322 l2 -393 -85 0 -85 0 0 395 0 396 83 -3 82 -3 3 -392z m974
386 c122 -26 223 -101 273 -203 95 -195 23 -434 -160 -528 -74 -39 -133 -48
-307 -48 l-168 0 0 395 0 395 155 0 c84 0 178 -5 207 -11z m1426 -61 l-3 -73
-182 -3 -183 -2 0 -85 0 -85 173 -2 172 -3 0 -70 0 -70 -172 -3 -173 -2 0 -90
0 -90 185 0 185 0 0 -70 0 -70 -270 0 -270 0 0 388 c0 214 3 392 7 395 3 4
125 7 270 7 l264 0 -3 -72z m864 -156 l173 -229 5 226 5 226 83 3 82 3 0 -396
0 -395 -64 0 -64 0 -176 237 -176 237 0 -237 0 -237 -85 0 -85 0 0 395 0 395
64 0 64 0 174 -228z m1466 156 l-3 -73 -97 -3 -98 -3 0 -319 0 -320 -85 0 -85
0 0 320 0 319 -97 3 -98 3 -3 59 c-2 32 -1 65 2 72 4 11 58 14 286 14 l281 0
-3 -72z m722 -323 l0 -395 -85 0 -85 0 0 395 0 395 85 0 85 0 0 -395z m1110
320 l0 -75 -95 0 -95 0 0 -320 0 -320 -85 0 -85 0 0 320 0 320 -100 0 -100 0
0 75 0 75 280 0 280 0 0 -75z m753 -43 c37 -65 73 -126 80 -136 12 -16 21 -5
91 118 l77 136 95 0 94 0 -14 -22 c-7 -13 -66 -112 -130 -220 l-116 -197 0
-175 0 -176 -85 0 -85 0 0 172 0 172 -127 215 c-69 119 -128 219 -130 224 -2
4 38 7 90 7 l93 0 67 -118z m4137 -115 l175 -232 3 233 2 232 80 0 80 0 0
-395 0 -395 -63 0 -63 0 -174 236 -175 237 -3 -237 -2 -236 -80 0 -80 0 0 395
0 395 63 -1 62 0 175 -232z m1488 161 l-3 -73 -182 -3 -183 -2 0 -85 0 -85
173 -2 172 -3 3 -72 3 -73 -176 0 -175 0 0 -90 0 -90 185 0 185 0 0 -70 0 -70
-265 0 -265 0 0 395 0 395 265 0 266 0 -3 -72z m1355 50 c93 -398 122 -518
127 -518 3 0 32 107 64 238 33 130 63 252 68 270 l9 32 84 0 84 0 9 -32 c5
-18 35 -140 68 -270 32 -131 61 -238 64 -238 5 0 34 120 127 518 5 21 10 22
95 22 68 0 89 -3 86 -12 -2 -7 -49 -185 -104 -395 l-99 -383 -96 0 -96 0 -15
58 c-9 31 -40 148 -69 260 -28 111 -53 201 -54 200 -4 -3 -135 -504 -135 -512
0 -3 -44 -6 -98 -6 l-97 0 -99 383 c-55 210 -102 388 -104 395 -3 9 18 12 86
12 85 0 90 -1 95 -22z m1962 -376 l134 -393 -92 3 -91 3 -25 78 -25 78 -146
-3 -145 -3 -24 -77 -25 -78 -88 0 c-48 0 -88 3 -88 8 0 4 59 182 131 395 l132
388 110 -3 109 -3 133 -393z m855 73 l0 -325 165 0 165 0 0 -70 0 -70 -250 0
-250 0 0 395 0 395 85 0 85 0 0 -325z m1050 0 l0 -325 170 0 170 0 0 -70 0
-70 -250 0 -250 0 0 395 0 395 80 0 80 0 0 -325z m1420 250 l0 -75 -185 0
-185 0 0 -85 0 -85 175 0 175 0 0 -75 0 -75 -175 0 -175 0 0 -90 0 -90 185 0
185 0 0 -70 0 -70 -265 0 -265 0 0 395 0 395 265 0 265 0 0 -75z m1070 0 l0
-75 -100 0 -100 0 0 -320 0 -320 -80 0 -80 0 0 320 0 320 -100 0 -100 0 0 75
0 75 280 0 280 0 0 -75z m3761 -154 l174 -229 5 226 5 227 83 3 82 3 0 -396 0
-396 -67 3 -67 3 -170 231 -171 231 -3 -233 -2 -234 -85 0 -85 0 0 395 0 395
64 0 64 0 173 -229z m1489 154 l0 -75 -180 0 -180 0 0 -85 0 -85 170 0 170 0
0 -75 0 -75 -170 0 -170 0 0 -90 0 -90 180 0 180 0 0 -70 0 -70 -265 0 -265 0
0 395 0 395 265 0 265 0 0 -75z m1671 59 c133 -39 197 -194 128 -312 l-19 -32
35 -45 c75 -99 53 -267 -44 -331 -71 -47 -117 -54 -338 -54 l-203 0 0 395 0
395 193 0 c148 0 206 -4 248 -16z m1324 -366 c71 -211 130 -389 133 -395 3
-10 -18 -13 -86 -13 l-90 0 -24 78 -24 77 -146 3 -146 3 -27 -81 -27 -80 -89
0 -88 0 126 373 c69 204 129 382 134 395 8 21 14 22 117 22 l109 0 128 -382z
m855 57 l0 -325 170 0 170 0 0 -70 0 -70 -250 0 -250 0 0 395 0 395 80 0 80 0
0 -325z m1340 263 c76 -222 240 -713 240 -720 0 -4 -40 -8 -88 -8 l-88 0 -25
78 -25 77 -145 3 -145 3 -25 -78 -25 -78 -87 -3 c-48 -1 -87 1 -87 6 0 7 162
492 240 720 l22 62 108 0 108 0 22 -62z m1101 -168 l174 -230 3 230 2 230 85
0 85 0 0 -395 0 -396 -67 3 -67 3 -170 231 -171 230 -3 -233 -2 -233 -85 0
-85 0 0 395 0 395 64 0 63 0 174 -230z m2787 158 l-3 -73 -182 -3 -183 -2 0
-85 0 -85 173 -2 172 -3 0 -70 0 -70 -172 -3 -173 -2 0 -90 0 -90 185 0 185 0
0 -70 0 -70 -270 0 -270 0 0 395 0 395 270 0 271 0 -3 -72z m-26558 -645 c0
-87 -15 -139 -52 -184 -21 -26 -81 -59 -105 -59 -20 0 -23 5 -23 35 0 28 5 37
24 45 26 10 66 56 66 76 0 9 -12 14 -35 14 l-35 0 0 73 c0 41 3 77 7 80 3 4
39 7 80 7 l73 0 0 -87z m12968 -5 c-6 -135 -49 -204 -145 -236 l-33 -11 0 39
c0 34 4 42 30 55 25 13 60 59 60 80 0 3 -16 5 -35 5 l-35 0 0 80 0 80 81 0 81
0 -4 -92z m-11653 -7888 c21 -13 46 -37 56 -54 l19 -31 -31 -15 c-30 -16 -31
-16 -69 22 -33 34 -43 38 -87 38 -123 0 -191 -131 -130 -250 29 -58 75 -83
142 -77 42 4 54 10 81 41 l32 37 32 -16 31 -16 -20 -32 c-11 -18 -44 -45 -73
-60 -46 -25 -61 -28 -111 -24 -126 11 -208 103 -208 233 0 106 52 186 143 221
49 19 149 10 193 -17z m772 -6 c128 -80 142 -271 27 -372 -90 -80 -214 -82
-305 -4 -54 47 -79 101 -79 178 0 105 62 194 156 224 55 18 151 5 201 -26z
m689 17 c41 -19 84 -63 84 -87 0 -7 -12 -16 -26 -21 -22 -7 -31 -4 -59 24 -28
28 -40 33 -79 33 -38 0 -48 -4 -63 -26 -15 -24 -15 -29 -2 -53 11 -19 35 -33
94 -54 91 -32 121 -55 136 -107 21 -70 -33 -140 -121 -156 -72 -14 -160 30
-196 97 -13 26 -12 27 17 39 26 11 32 10 44 -6 8 -11 15 -22 15 -26 0 -15 60
-38 96 -38 46 0 74 24 74 61 0 34 -23 51 -96 72 -106 31 -144 68 -144 139 0
102 118 158 226 109z m1310 0 c41 -19 84 -63 84 -87 0 -7 -12 -16 -26 -21 -22
-7 -31 -4 -59 24 -28 28 -40 33 -79 33 -38 0 -48 -4 -63 -26 -15 -24 -15 -29
-2 -53 11 -19 35 -33 94 -54 121 -42 161 -93 135 -172 -41 -125 -249 -122
-315 5 -14 27 -13 28 14 39 26 11 31 9 68 -28 35 -35 47 -41 84 -41 51 0 79
22 79 61 0 34 -23 51 -98 73 -99 29 -142 70 -142 138 0 101 118 158 226 109z
m-3436 -21 l0 -30 -115 0 -115 0 0 -65 0 -65 105 0 105 0 0 -35 0 -35 -105 0
-105 0 0 -60 0 -59 113 -3 112 -3 3 -32 3 -33 -155 0 -156 0 0 225 0 225 155
0 155 0 0 -30z m2655 -54 c27 -46 53 -83 56 -81 3 3 28 40 54 85 l49 80 43 0
43 0 -23 -37 c-13 -21 -47 -75 -75 -120 l-52 -83 0 -105 0 -105 -40 0 -40 0 0
105 0 104 -68 108 c-37 59 -71 114 -76 121 -5 9 4 12 36 12 l43 -1 50 -83z
m1505 54 l0 -30 -60 0 -60 0 0 -195 0 -195 -40 0 -40 0 0 195 0 195 -60 0 -60
0 0 30 0 30 160 0 160 0 0 -30z m630 0 l0 -30 -115 0 -115 0 0 -65 0 -65 105
0 105 0 0 -35 0 -35 -105 0 -105 0 0 -60 0 -59 113 -3 112 -3 3 -32 3 -33
-150 0 -151 0 0 225 0 225 150 0 150 0 0 -30z m482 -70 c38 -52 72 -96 76 -98
4 -1 39 43 77 98 67 96 71 99 108 100 l37 0 0 -225 0 -225 -40 0 -40 0 0 156
0 156 -67 -91 c-37 -50 -70 -91 -74 -91 -4 0 -38 43 -76 96 l-68 97 -3 -162
-2 -161 -35 0 -35 0 0 226 0 225 37 -3 c34 -3 42 -10 105 -98z m1305 80 c47
-28 65 -62 65 -121 0 -92 -58 -139 -174 -139 l-68 0 0 -85 0 -85 -40 0 -40 0
0 225 0 225 113 0 c93 0 117 -3 144 -20z m624 -65 c15 -44 49 -144 77 -223
l51 -143 -42 3 c-40 3 -42 5 -56 51 l-15 47 -92 0 -92 0 -17 -50 c-16 -49 -17
-50 -57 -50 -22 0 -38 4 -36 9 2 5 37 107 78 226 l75 216 49 -3 49 -3 28 -80z
m708 67 c49 -26 73 -75 68 -136 -4 -42 -10 -55 -41 -83 -20 -18 -36 -36 -36
-39 0 -3 20 -40 45 -83 25 -43 45 -81 45 -84 0 -4 -18 -7 -39 -7 -39 0 -40 1
-86 85 l-46 85 -45 0 -44 0 0 -85 0 -85 -35 0 -35 0 0 225 0 225 108 0 c85 0
114 -4 141 -18z m681 -12 c0 -30 -1 -30 -55 -30 l-55 0 0 -195 0 -195 -40 0
-40 0 0 195 0 195 -60 0 -60 0 0 30 0 30 155 0 155 0 0 -30z m506 -121 l109
-151 3 151 3 151 34 0 35 0 0 -225 0 -225 -30 0 c-26 0 -40 15 -137 151 l-108
151 -3 -151 -3 -151 -39 0 -40 0 0 225 0 225 33 0 c32 0 40 -8 143 -151z m854
121 l0 -30 -110 0 -110 0 0 -65 0 -65 105 0 105 0 0 -35 0 -35 -105 0 -105 0
0 -60 0 -60 110 0 110 0 0 -35 0 -35 -150 0 -150 0 0 225 0 225 150 0 150 0 0
-30z m620 -5 c63 -61 62 -159 -4 -211 l-33 -27 48 -84 c27 -47 49 -86 49 -89
0 -2 -18 -4 -39 -4 -39 0 -40 1 -88 85 l-48 85 -42 0 -43 0 0 -85 0 -85 -40 0
-40 0 0 226 0 226 124 -4 c123 -3 125 -4 156 -33z m-20760 -1746 c25 -5 63
-12 85 -15 101 -16 340 -121 353 -155 2 -5 8 -9 13 -9 20 0 209 -177 209 -196
0 -7 7 -14 15 -18 8 -3 15 -12 15 -20 0 -8 4 -16 8 -18 14 -5 95 -166 121
-238 29 -81 51 -217 51 -315 0 -101 -31 -289 -51 -309 -5 -6 -9 -18 -9 -28 0
-10 -4 -26 -10 -36 -5 -9 -21 -43 -35 -74 -15 -32 -31 -58 -36 -58 -5 0 -9 -8
-9 -18 0 -10 -13 -32 -30 -50 -16 -18 -30 -37 -30 -41 0 -11 -160 -171 -171
-171 -4 0 -20 -11 -35 -25 -15 -14 -38 -28 -51 -31 -13 -4 -23 -10 -23 -14 0
-11 -146 -80 -168 -80 -10 0 -22 -4 -27 -9 -21 -20 -209 -51 -310 -51 -101 0
-259 26 -303 49 -11 6 -30 11 -42 11 -11 0 -23 6 -26 13 -2 7 -16 14 -30 15
-14 1 -45 15 -69 31 -24 16 -53 32 -64 36 -12 3 -21 11 -21 16 0 5 -7 9 -15 9
-9 0 -18 7 -21 15 -4 8 -11 15 -18 15 -17 0 -196 188 -196 206 0 2 -9 14 -20
26 -11 12 -20 28 -20 35 0 7 -3 13 -8 13 -4 0 -18 24 -31 53 -12 28 -27 60
-33 71 -15 29 -39 107 -48 156 -4 25 -13 72 -20 105 -14 68 -9 223 10 300 20
87 41 159 55 190 112 258 288 435 545 548 44 19 127 42 205 58 33 6 65 13 70
14 23 8 184 3 225 -6z m28100 -79 c114 -28 271 -106 364 -180 145 -117 268
-305 318 -485 18 -66 22 -107 22 -240 1 -138 -2 -171 -22 -239 -97 -335 -344
-581 -672 -667 -106 -27 -365 -38 -491 -20 -391 58 -707 356 -785 742 -25 122
-16 323 20 444 76 255 243 452 481 570 174 86 277 106 520 100 117 -3 183 -10
245 -25z m-5631 5 c366 -77 625 -324 727 -695 28 -102 26 -338 -4 -449 -74
-272 -244 -479 -496 -601 -55 -27 -139 -59 -186 -70 -181 -43 -458 -35 -624
17 -355 112 -601 410 -647 784 -41 338 122 686 409 876 117 77 207 112 377
147 56 11 379 5 444 -9z m2809 -1 c280 -57 541 -267 656 -528 163 -368 78
-784 -215 -1060 -168 -158 -364 -238 -619 -252 -434 -24 -778 151 -960 489
-123 228 -146 505 -62 747 105 302 371 537 684 605 93 20 417 20 516 -1z
m-19718 -179 c0 -10 10 -15 30 -15 20 0 30 -5 30 -15 0 -8 7 -15 15 -15 8 0
15 -7 15 -15 0 -10 10 -15 30 -15 20 0 30 -5 30 -15 0 -10 10 -15 31 -15 22 0
32 -5 36 -20 4 -14 14 -20 34 -20 19 0 29 -5 29 -15 0 -8 7 -15 15 -15 8 0 15
-7 15 -15 0 -10 10 -15 30 -15 20 0 30 -5 30 -15 0 -10 10 -15 30 -15 20 0 30
-5 30 -15 0 -10 11 -15 35 -15 24 0 35 -5 35 -15 0 -8 7 -15 15 -15 8 0 15 -7
15 -15 0 -8 7 -15 15 -15 8 0 15 -7 15 -15 0 -8 7 -15 15 -15 13 0 15 -48 15
-375 0 -327 -2 -375 -15 -375 -8 0 -15 -7 -15 -15 0 -8 -7 -15 -15 -15 -8 0
-15 -7 -15 -15 0 -10 -10 -15 -28 -15 -19 0 -36 -10 -52 -30 -16 -19 -35 -29
-52 -30 -21 0 -28 -5 -28 -20 0 -16 -7 -20 -30 -20 -20 0 -30 -5 -30 -15 0 -8
-7 -15 -15 -15 -8 0 -15 -7 -15 -15 0 -10 -10 -15 -30 -15 -20 0 -30 -5 -30
-15 0 -10 -11 -15 -35 -15 -24 0 -35 -5 -35 -15 0 -10 -10 -15 -30 -15 -20 0
-30 -5 -30 -15 0 -8 -7 -15 -15 -15 -8 0 -15 -7 -15 -15 0 -10 -10 -15 -30
-15 -20 0 -30 -5 -30 -15 0 -12 -17 -15 -95 -15 -78 0 -95 3 -95 15 0 10 -10
15 -30 15 -20 0 -30 5 -30 15 0 8 -7 15 -15 15 -8 0 -15 7 -15 15 0 10 -10 15
-30 15 -20 0 -30 5 -30 15 0 10 -11 15 -35 15 -24 0 -35 5 -35 15 0 10 -10 15
-30 15 -20 0 -30 5 -30 15 0 8 -7 15 -15 15 -8 0 -15 7 -15 15 0 10 -10 15
-30 15 -28 0 -30 3 -30 35 0 24 5 35 15 35 8 0 15 7 15 15 0 8 7 15 15 15 10
0 15 10 15 30 0 20 5 30 15 30 10 0 15 10 15 30 0 20 5 30 15 30 8 0 15 7 15
15 0 8 7 15 15 15 10 0 15 11 15 35 0 24 5 35 14 35 8 0 17 14 21 30 4 17 11
30 16 30 5 0 9 7 9 15 0 8 7 15 15 15 10 0 15 10 15 30 0 23 4 30 20 30 15 0
20 7 20 25 0 25 31 65 50 65 6 0 10 16 10 35 0 24 5 35 15 35 8 0 15 7 15 15
0 8 7 15 15 15 10 0 15 10 15 30 0 20 5 30 15 30 10 0 15 10 15 30 0 20 5 30
15 30 10 0 15 10 15 30 0 25 5 30 33 35 58 11 220 1 225 -13 2 -7 -5 -16 -17
-19 -12 -3 -21 -12 -21 -19 0 -8 -7 -14 -15 -14 -10 0 -15 -10 -15 -30 0 -20
-5 -30 -15 -30 -10 0 -15 -10 -15 -30 0 -20 -5 -30 -15 -30 -10 0 -15 -11 -15
-35 0 -24 -5 -35 -15 -35 -8 0 -15 -7 -15 -15 0 -8 -7 -15 -15 -15 -10 0 -15
-10 -15 -30 0 -20 -5 -30 -15 -30 -10 0 -15 -10 -15 -30 0 -16 -4 -30 -10 -30
-19 0 -50 -40 -50 -66 0 -17 -6 -28 -20 -31 -14 -4 -20 -14 -20 -34 0 -19 -5
-29 -15 -29 -8 0 -15 -7 -15 -15 0 -8 -7 -15 -15 -15 -10 0 -15 -10 -15 -30 0
-20 -5 -30 -15 -30 -10 0 -15 -10 -15 -30 0 -20 -5 -30 -15 -30 -10 0 -15 -10
-15 -30 0 -20 -5 -30 -15 -30 -8 0 -15 -7 -15 -15 0 -9 -7 -18 -15 -21 -8 -4
-15 -12 -15 -20 0 -8 7 -14 15 -14 8 0 15 -7 15 -15 0 -8 7 -15 15 -15 8 0 15
-7 15 -15 0 -10 10 -15 30 -15 20 0 30 -5 30 -15 0 -10 10 -15 30 -15 20 0 30
-5 30 -15 0 -12 14 -15 65 -15 51 0 65 3 65 15 0 10 10 15 30 15 20 0 30 5 30
15 0 10 10 15 30 15 20 0 30 5 30 15 0 8 7 15 15 15 8 0 15 9 15 20 0 11 -7
20 -15 20 -8 0 -15 7 -15 15 0 8 -7 15 -15 15 -10 0 -15 10 -15 30 0 20 -5 30
-15 30 -10 0 -15 10 -15 30 0 20 -5 30 -15 30 -8 0 -15 7 -15 15 0 8 -7 15
-15 15 -10 0 -15 11 -15 35 0 24 -5 35 -15 35 -8 0 -15 7 -15 15 0 8 -7 15
-15 15 -9 0 -15 9 -15 25 0 16 6 25 15 25 8 0 15 6 15 14 0 8 7 16 15 20 9 3
15 18 15 36 0 20 5 30 15 30 8 0 15 7 15 15 0 8 7 15 15 15 8 0 15 7 15 15 0
8 7 15 15 15 8 0 15 -7 15 -15 0 -8 7 -15 15 -15 10 0 15 -10 15 -30 0 -20 5
-30 15 -30 8 0 15 -9 15 -20 0 -11 7 -20 15 -20 10 0 15 -10 15 -30 0 -20 5
-30 15 -30 8 0 15 -7 15 -15 0 -8 7 -15 15 -15 10 0 15 -10 15 -30 0 -20 5
-30 15 -30 8 0 16 -7 16 -15 1 -8 2 -18 3 -22 2 -13 76 -83 86 -83 6 0 10 7
10 15 0 8 9 15 20 15 11 0 20 7 20 15 0 8 -9 15 -20 15 -11 0 -20 7 -20 15 0
8 -7 15 -15 15 -10 0 -15 11 -15 35 0 24 -5 35 -15 35 -8 0 -15 7 -15 15 0 8
-7 15 -15 15 -10 0 -15 10 -15 30 0 20 -5 30 -15 30 -10 0 -15 10 -15 30 0 20
-5 30 -15 30 -8 0 -15 7 -15 15 0 8 -7 15 -15 15 -10 0 -15 10 -15 28 0 18
-10 37 -31 55 -17 15 -25 27 -18 27 9 1 8 4 -3 11 -27 15 -25 85 2 92 11 3 20
12 20 21 0 9 7 16 15 16 10 0 15 10 15 30 0 20 5 30 15 30 8 0 15 7 15 15 0 8
5 15 10 15 6 0 10 -13 10 -30 0 -20 5 -30 15 -30 10 0 15 -10 15 -31 0 -22 5
-32 20 -36 11 -3 20 -12 20 -19 0 -8 4 -14 9 -14 5 0 12 -13 16 -30 4 -16 13
-30 21 -30 8 0 14 -7 14 -15 0 -8 7 -15 15 -15 10 0 15 -10 15 -30 0 -20 5
-30 15 -30 10 0 15 -10 15 -30 0 -20 5 -30 15 -30 8 0 15 -9 15 -20 0 -11 7
-20 15 -20 8 0 16 -7 16 -15 3 -35 5 -39 15 -42 20 -7 24 38 24 297 l0 255
-24 23 c-13 12 -36 22 -50 22 -16 0 -26 5 -26 15 0 10 -10 15 -30 15 -20 0
-30 5 -30 15 0 10 -10 15 -30 15 -20 0 -30 5 -30 15 0 8 -7 15 -15 15 -8 0
-15 7 -15 15 0 10 -10 15 -30 15 -20 0 -30 5 -30 15 0 10 -10 15 -30 15 -18 0
-33 6 -36 15 -4 8 -12 15 -20 15 -8 0 -14 6 -14 14 0 8 -13 17 -30 21 -16 4
-30 13 -30 21 0 9 -11 14 -30 14 -20 0 -30 5 -30 15 0 12 -14 15 -65 15 -51 0
-65 -3 -65 -15 0 -10 -10 -15 -30 -15 -20 0 -30 -5 -30 -15 0 -10 -10 -15 -30
-15 -16 0 -30 -5 -30 -11 0 -22 -45 -59 -72 -59 -18 0 -28 -5 -28 -15 0 -10
-10 -15 -30 -15 -20 0 -30 -5 -30 -15 0 -8 -7 -15 -15 -15 -8 0 -15 -7 -15
-15 0 -10 -10 -15 -30 -15 -20 0 -30 -5 -30 -15 0 -10 -10 -15 -30 -15 -20 0
-30 -5 -30 -15 0 -10 -11 -15 -35 -15 -24 0 -35 -5 -35 -15 0 -8 -7 -15 -15
-15 -13 0 -15 -36 -15 -265 0 -229 2 -265 15 -265 10 0 15 10 15 30 0 20 5 30
15 30 8 0 15 7 15 15 0 9 9 15 21 15 18 0 20 4 14 30 -5 22 -3 30 7 30 22 0
58 46 58 74 0 16 5 26 15 26 10 0 15 10 15 30 0 20 5 30 15 30 8 0 15 7 15 15
0 8 7 15 15 15 10 0 15 10 15 30 0 20 5 30 15 30 8 0 15 7 15 15 0 8 7 15 15
15 8 0 15 6 15 13 0 6 11 22 24 35 21 19 34 22 109 22 47 0 88 -4 92 -10 9
-15 -6 -60 -21 -60 -9 0 -14 -11 -14 -30 0 -20 -5 -30 -15 -30 -8 0 -15 -7
-15 -15 0 -8 -6 -15 -14 -15 -9 0 -16 -12 -18 -32 -2 -20 -8 -32 -15 -30 -7 1
-13 -5 -13 -13 0 -9 -7 -18 -15 -21 -9 -4 -15 -19 -15 -35 0 -19 -5 -29 -15
-29 -10 0 -15 -10 -15 -30 0 -20 -5 -30 -15 -30 -8 0 -15 -7 -15 -15 0 -8 -9
-15 -20 -15 -16 0 -20 -7 -20 -30 0 -20 -5 -30 -15 -30 -8 0 -15 -9 -15 -20 0
-11 -7 -20 -15 -20 -10 0 -15 -10 -15 -30 0 -20 -5 -30 -15 -30 -10 0 -15 -10
-15 -30 0 -20 -5 -30 -15 -30 -8 0 -15 -7 -15 -15 0 -8 -7 -15 -15 -15 -10 0
-15 -10 -15 -30 0 -19 -5 -30 -14 -30 -9 0 -16 -12 -18 -32 -3 -31 -6 -33 -46
-36 -37 -3 -44 0 -49 17 -3 12 -12 21 -19 21 -8 0 -14 7 -14 15 0 10 -10 15
-30 15 l-30 0 0 390 c0 340 2 390 15 390 8 0 15 7 15 15 0 8 7 15 15 15 8 0
15 7 15 15 0 8 9 15 20 15 11 0 20 7 20 15 0 10 10 15 30 15 20 0 30 5 30 15
0 10 10 15 30 15 20 0 30 5 30 15 0 10 10 15 30 15 20 0 30 5 30 15 0 8 7 15
15 15 8 0 15 7 15 15 0 10 10 15 29 15 20 0 30 6 34 20 4 15 14 20 36 20 21 0
31 5 31 15 0 10 10 15 30 15 20 0 30 5 30 15 0 8 7 15 15 15 8 0 15 7 15 15 0
10 10 15 30 15 20 0 30 5 30 15 0 12 17 15 95 15 78 0 95 -3 95 -15z m11300
-125 c96 -51 185 -102 198 -113 l22 -20 0 -472 0 -472 -22 -20 c-13 -11 -108
-64 -211 -118 -160 -83 -194 -97 -222 -92 -42 7 -382 183 -412 214 l-23 22 0
463 c0 398 2 467 15 485 9 12 86 59 173 104 86 45 173 91 192 101 58 31 98 20
290 -82z m-5629 -52 c87 -51 159 -95 159 -98 0 -3 -27 -20 -60 -38 l-61 -33
-105 60 c-58 34 -111 61 -117 61 -6 0 -57 -27 -114 -60 l-104 -61 -60 32 c-33
18 -58 36 -57 41 6 17 323 197 341 193 10 -2 90 -45 178 -97z m5943 -22 c9
-19 16 -48 16 -65 0 -27 -3 -31 -29 -31 -25 0 -29 4 -35 39 -6 37 -43 82 -77
93 -9 3 -7 12 5 31 l18 27 43 -30 c23 -16 50 -45 59 -64z m-3322 -18 c9 -7 50
-74 92 -148 81 -144 89 -175 60 -233 -21 -40 -184 -329 -238 -421 -64 -108
-70 -110 -248 -114 -83 -2 -161 -1 -174 2 -40 10 -48 40 -23 88 57 112 463
815 477 826 9 6 21 12 27 12 6 0 18 -6 27 -12z m16318 -18 c0 -20 5 -30 15
-30 10 0 15 -10 15 -30 0 -28 3 -30 35 -30 23 0 35 -5 35 -14 0 -8 7 -16 15
-20 30 -11 14 -25 -32 -28 -43 -3 -48 -6 -51 -28 -2 -14 -10 -29 -18 -33 -8
-4 -14 -21 -14 -37 0 -20 -5 -30 -15 -30 -11 0 -15 12 -15 45 0 33 -4 45 -15
45 -8 0 -15 9 -15 20 0 17 -7 20 -46 20 -44 0 -45 1 -42 28 3 24 7 27 46 30
28 2 42 8 42 18 0 8 7 14 15 14 11 0 15 12 15 45 0 33 4 45 15 45 10 0 15 -10
15 -30z m964 15 c3 -8 12 -15 21 -15 8 0 15 -7 15 -15 0 -10 10 -15 30 -15 20
0 30 -5 30 -15 0 -8 7 -15 15 -15 8 0 15 -7 15 -15 0 -8 7 -15 15 -15 8 0 15
-7 15 -15 0 -8 6 -15 14 -15 8 0 17 -12 21 -27 3 -15 13 -32 22 -38 18 -13 10
-35 -13 -35 -8 0 -14 -4 -14 -9 0 -5 -13 -12 -30 -16 -16 -4 -30 -13 -30 -21
0 -8 -4 -14 -10 -14 -5 0 -10 -7 -10 -15 0 -8 -9 -15 -20 -15 -13 0 -20 -7
-20 -20 0 -11 -7 -20 -15 -20 -8 0 -15 -4 -15 -10 0 -5 -6 -10 -14 -10 -8 0
-17 -13 -21 -30 -4 -16 -13 -30 -21 -30 -8 0 -14 -6 -14 -14 0 -8 -7 -16 -15
-20 -8 -3 -15 -17 -15 -31 0 -16 -6 -25 -15 -25 -8 0 -15 -9 -15 -20 0 -11 -7
-20 -15 -20 -10 0 -15 -10 -15 -30 0 -20 -5 -30 -15 -30 -8 0 -15 -7 -15 -15
0 -8 -7 -15 -15 -15 -8 0 -15 -7 -15 -15 0 -8 -7 -15 -15 -15 -8 0 -15 -9 -15
-20 0 -11 -7 -20 -15 -20 -9 0 -15 -9 -15 -25 0 -16 -6 -25 -16 -25 -9 0 -18
-9 -21 -20 -3 -11 -12 -20 -19 -20 -8 0 -14 -7 -14 -15 0 -8 -7 -15 -15 -15
-8 0 -15 -7 -15 -15 0 -10 -10 -15 -30 -15 -20 0 -30 -5 -30 -15 0 -8 -7 -15
-15 -15 -8 0 -15 -7 -15 -15 0 -8 -7 -15 -15 -15 -8 0 -15 -7 -15 -15 0 -11
-12 -15 -45 -15 -31 0 -47 -5 -51 -15 -4 -10 -20 -15 -45 -15 -26 0 -42 -5
-45 -15 -5 -12 -29 -15 -126 -15 -93 0 -123 3 -134 15 -9 8 -31 15 -50 15 -24
0 -34 5 -34 15 0 10 -10 15 -30 15 -20 0 -30 5 -30 15 0 8 -7 15 -15 15 -8 0
-15 7 -15 15 0 10 -10 15 -30 15 -20 0 -30 5 -30 15 0 8 -7 15 -15 15 -8 0
-15 7 -15 15 0 8 -7 15 -15 15 -8 0 -15 6 -15 13 0 7 -9 20 -20 30 -11 9 -20
24 -20 32 0 8 -7 15 -15 15 -8 0 -15 9 -15 20 0 11 -7 20 -15 20 -8 0 -15 7
-15 15 0 8 -7 15 -15 15 -11 0 -15 12 -15 45 0 33 4 45 15 45 8 0 15 -7 15
-15 0 -13 22 -15 140 -15 118 0 140 2 140 15 0 10 10 15 30 15 20 0 30 5 30
15 0 8 9 15 20 15 11 0 20 7 20 15 0 9 9 15 25 15 14 0 25 5 25 11 0 15 42 59
58 59 6 0 12 11 12 25 0 16 6 25 15 25 8 0 15 9 15 20 0 11 7 20 15 20 8 0 15
7 15 15 0 8 7 15 15 15 8 0 15 7 15 15 0 8 6 15 14 15 8 0 17 14 21 30 4 17
11 30 16 30 5 0 9 7 9 15 0 8 7 15 15 15 8 0 15 5 15 11 0 15 104 119 119 119
6 0 11 7 11 15 0 8 7 15 15 15 8 0 15 7 15 15 0 10 10 15 30 15 20 0 30 5 30
15 0 10 10 15 30 15 20 0 30 5 30 15 0 13 25 15 169 15 141 0 170 -2 175 -15z
m-28101 -150 l137 -78 -2 -161 -3 -161 -139 -79 -139 -80 -46 26 -46 27 -3 70
c-2 39 0 71 3 71 4 0 25 -11 48 -25 l42 -24 75 42 75 43 3 90 3 90 -74 42
c-41 23 -78 42 -81 42 -4 0 -40 -19 -81 -42 l-75 -43 0 -250 0 -250 -135 -77
c-74 -43 -138 -78 -142 -78 -4 0 -69 36 -143 79 l-135 79 -3 155 c-2 130 0
156 13 167 9 7 72 46 142 86 l125 74 49 -28 49 -27 0 -72 0 -73 -48 27 -49 27
-76 -44 -77 -44 0 -87 0 -88 73 -42 c39 -23 75 -43 78 -45 3 -1 39 17 80 41
l74 44 5 253 5 252 135 77 c74 43 137 76 140 75 3 -2 67 -38 143 -81z m28467
65 c9 -16 8 -20 -5 -20 -8 0 -15 9 -15 20 0 11 2 20 5 20 2 0 9 -9 15 -20z
m-23180 -35 c0 -12 15 -15 75 -15 58 0 77 -4 81 -15 4 -9 19 -15 35 -15 28 0
29 -2 29 -50 0 -49 -1 -50 -30 -50 -20 0 -30 -5 -30 -15 0 -12 -16 -15 -80
-15 -64 0 -80 -3 -80 -15 0 -12 13 -15 60 -15 47 0 60 -3 60 -15 0 -11 12 -15
50 -15 38 0 50 -4 50 -15 0 -10 10 -15 30 -15 20 0 30 -5 30 -15 0 -8 7 -15
15 -15 10 0 15 -11 15 -35 0 -24 -5 -35 -15 -35 -8 0 -15 -7 -15 -15 0 -8 -7
-15 -15 -15 -8 0 -15 -7 -15 -15 0 -11 -12 -15 -45 -15 -33 0 -45 -4 -45 -15
0 -13 -31 -15 -220 -15 -189 0 -220 2 -220 15 0 11 -12 15 -45 15 -33 0 -45 4
-45 15 0 8 -9 15 -19 15 -30 0 -51 28 -51 65 0 37 21 65 51 65 10 0 19 7 19
15 0 12 13 15 60 15 47 0 60 3 60 15 0 11 12 15 50 15 38 0 50 4 50 15 0 12
-14 15 -65 15 -51 0 -65 3 -65 15 0 10 -10 15 -30 15 -29 0 -30 1 -30 50 0 49
1 50 30 50 20 0 30 5 30 15 0 12 15 15 74 15 56 0 75 4 80 15 4 11 21 15 66
15 47 0 60 -3 60 -15z m2355 -29 l55 -33 -65 -38 -65 -38 0 -73 0 -73 -60 36
-60 35 0 77 0 76 53 32 c28 17 60 32 69 32 9 1 42 -14 73 -33z m444 0 l54 -33
-63 -37 -62 -36 -54 30 c-29 17 -56 35 -59 40 -6 10 92 70 115 70 8 0 39 -16
69 -34z m441 1 l55 -33 3 -75 3 -74 -63 -37 -63 -37 -3 74 -3 74 -59 36 c-33
20 -60 38 -60 40 0 7 106 65 120 65 8 0 40 -15 70 -33z m20006 -115 c-10 -10
-29 15 -21 28 6 9 10 8 17 -4 6 -10 7 -20 4 -24z m-20595 -58 l77 -45 110 65
111 64 63 -37 63 -36 3 -75 3 -75 -111 -63 -110 -63 0 -129 0 -129 -59 -35
c-32 -20 -64 -36 -71 -36 -6 0 -38 15 -71 33 l-59 32 0 131 0 131 -110 62
-110 63 0 77 0 77 63 36 62 36 35 -20 c19 -11 69 -40 111 -64z m8345 71 c101
-30 128 -93 104 -243 -23 -147 -86 -243 -179 -270 -59 -18 -160 -15 -206 7
-78 36 -109 97 -94 189 23 149 63 242 121 283 64 46 168 60 254 34z m585 -22
c57 -36 73 -97 48 -174 -32 -95 -91 -131 -229 -139 l-95 -5 -18 -85 c-10 -46
-23 -88 -30 -92 -16 -10 -99 -10 -116 1 -11 7 -4 52 38 252 29 134 54 250 56
257 4 11 37 13 158 10 136 -3 156 -5 188 -25z m11686 -100 c-3 -10 -5 -4 -5
12 0 17 2 24 5 18 2 -7 2 -21 0 -30z m-20999 -136 c8 -7 12 -47 12 -137 l0
-128 113 -65 112 -64 3 -72 c2 -39 0 -71 -4 -71 -4 0 -83 44 -176 98 l-168 97
0 203 0 203 48 -27 c26 -15 53 -32 60 -37z m1028 -332 c-4 -11 -328 -205 -341
-205 -3 0 -5 32 -3 72 l3 72 108 63 107 64 0 129 0 129 63 35 62 35 3 -192 c1
-105 1 -196 -2 -202z m2576 308 c35 -40 188 -315 188 -338 0 -14 -8 -29 -19
-35 -12 -6 -94 -10 -198 -10 -145 0 -183 3 -201 16 -12 8 -22 22 -22 31 0 16
100 196 166 301 36 55 59 65 86 35z m-3372 -181 c0 -41 -3 -72 -8 -70 -4 2
-31 16 -60 32 l-52 29 0 74 0 74 60 -33 60 -33 0 -73z m578 66 l-3 -72 -55
-33 c-30 -18 -58 -33 -62 -33 -5 0 -8 31 -8 70 l0 69 58 35 c31 19 61 35 65
35 4 1 7 -31 5 -71z m-2828 27 c0 -11 12 -15 45 -15 33 0 45 -4 45 -15 0 -8 5
-15 11 -15 6 0 22 -10 35 -22 31 -30 34 -97 4 -105 -11 -3 -20 -12 -20 -19 0
-9 -11 -14 -30 -14 -20 0 -30 -5 -30 -15 0 -12 -13 -15 -60 -15 -47 0 -60 -3
-60 -15 0 -13 -36 -15 -265 -15 -229 0 -265 2 -265 15 0 11 -12 15 -50 15 -38
0 -50 4 -50 15 0 10 -10 15 -30 15 -20 0 -30 5 -30 15 0 8 -7 15 -15 15 -12 0
-15 14 -15 65 l0 65 30 0 c20 0 30 5 30 15 0 11 12 15 45 15 33 0 45 4 45 15
0 13 42 15 315 15 273 0 315 -2 315 -15z m23017 -52 c-3 -10 -5 -4 -5 12 0 17
2 24 5 18 2 -7 2 -21 0 -30z m-30 -125 c-3 -7 -5 -2 -5 12 0 14 2 19 5 13 2
-7 2 -19 0 -25z m-387 -73 c0 -8 7 -15 15 -15 12 0 15 -13 15 -60 0 -47 -3
-60 -15 -60 -8 0 -15 -7 -15 -15 0 -19 -115 -21 -134 -2 -20 19 -27 63 -20
117 l7 50 73 0 c59 0 74 -3 74 -15z m-15021 -120 c9 -36 19 -51 46 -66 39 -23
39 -23 25 -50 -15 -27 -34 -24 -75 12 -43 38 -51 51 -60 107 -7 42 -6 42 23
42 27 0 31 -4 41 -45z m-5160 -9 l58 -34 59 34 c32 19 62 34 67 34 4 0 7 -31
7 -70 l0 -69 -62 -36 c-69 -41 -79 -40 -150 5 l-48 30 0 70 c0 39 3 70 6 70 3
0 32 -15 63 -34z m1666 -1937 c72 -37 108 -92 113 -175 7 -100 -26 -157 -196
-340 l-139 -149 178 -3 179 -2 0 -55 0 -55 -265 0 -265 0 0 48 c0 48 0 48 145
202 229 244 256 286 234 365 -34 120 -227 101 -272 -27 -6 -16 -10 -16 -59 -2
-29 9 -55 18 -57 20 -2 2 8 28 23 58 50 102 130 147 256 143 58 -1 87 -8 125
-28z m908 15 c130 -44 216 -199 217 -390 0 -251 -123 -414 -316 -414 -170 0
-287 123 -315 328 -24 182 34 363 141 437 80 55 182 70 273 39z m1000 0 c91
-31 172 -129 203 -248 18 -66 18 -226 0 -294 -30 -113 -94 -197 -181 -238 -69
-33 -170 -33 -240 0 -65 30 -138 111 -166 184 -27 70 -38 250 -20 332 28 132
115 239 221 271 43 13 135 10 183 -7z m2770 -27 c157 -78 238 -223 224 -405
-11 -142 -99 -272 -226 -335 -62 -30 -71 -32 -181 -32 -110 0 -118 1 -182 33
-83 41 -149 107 -191 191 -30 62 -32 71 -32 181 0 104 3 121 27 172 29 63 101
146 155 179 68 42 141 59 239 56 83 -3 99 -7 167 -40z m-1493 -152 c73 -101
137 -182 141 -180 4 3 64 86 134 185 l127 180 59 0 59 0 0 -400 0 -400 -65 0
-65 0 -2 278 -3 279 -123 -169 c-68 -92 -127 -166 -131 -164 -4 3 -61 80 -127
171 l-119 167 -3 -281 -2 -281 -65 0 -65 0 0 400 0 400 58 0 59 0 133 -185z
m2511 162 c89 -40 138 -112 147 -212 7 -96 -42 -187 -131 -240 -15 -9 -8 -26
59 -140 42 -71 82 -142 90 -157 l15 -28 -73 0 -73 0 -83 150 -84 150 -79 0
-79 0 0 -150 0 -150 -60 0 -60 0 -2 388 c-2 213 -1 393 1 400 6 21 363 12 412
-11z m1049 -37 l0 -60 -200 0 -200 0 0 -110 0 -110 190 0 190 0 0 -60 0 -60
-190 0 -190 0 0 -115 0 -115 200 0 200 0 0 -55 0 -55 -265 0 -265 0 0 400 0
400 265 0 265 0 0 -60z m-7720 -310 l0 -110 105 0 105 0 0 -55 0 -55 -105 0
-105 0 0 -105 0 -105 -55 0 -55 0 0 105 0 105 -105 0 -105 0 0 55 0 55 105 0
105 0 0 110 0 110 55 0 55 0 0 -110z m1740 -3918 c327 -87 576 -291 739 -601
136 -260 197 -511 208 -856 12 -372 -48 -694 -182 -968 -47 -98 -53 -104 -105
-99 -8 1 -33 3 -55 5 -22 2 -46 -1 -53 -6 -9 -7 -16 -7 -20 0 -4 6 -32 8 -67
6 -90 -6 -128 -6 -152 0 -13 3 -25 2 -28 -3 -3 -5 -16 -6 -28 -2 -12 4 -51 6
-87 5 -97 -4 -115 -5 -125 -3 -23 5 -56 -1 -51 -8 3 -5 -1 -9 -9 -9 -8 0 -13
5 -12 10 1 5 -4 12 -12 15 -8 2 -11 0 -7 -6 4 -6 -2 -8 -15 -5 -17 5 -13 10
28 33 27 16 77 58 111 94 111 120 187 311 223 566 18 127 15 472 -5 603 -52
334 -185 561 -378 647 -111 49 -279 49 -393 0 -185 -79 -312 -289 -372 -610
-26 -138 -26 -586 0 -715 57 -284 170 -495 309 -574 39 -23 46 -30 35 -39 -8
-7 -16 -9 -20 -6 -7 7 -177 12 -177 5 0 -3 -11 -7 -25 -7 -16 -1 -22 2 -18 10
4 7 1 6 -9 -1 -8 -7 -18 -10 -22 -6 -10 11 -56 11 -56 1 0 -5 -5 -6 -11 -2
-14 9 -238 8 -260 -1 -10 -3 -20 -2 -24 4 -3 6 -20 11 -36 11 -18 0 -28 -4
-24 -10 3 -5 2 -10 -4 -10 -5 0 -12 4 -16 10 -3 6 -15 6 -30 0 -28 -10 -43 6
-87 95 -200 399 -242 1025 -102 1520 43 151 149 368 238 486 176 233 412 382
689 435 109 20 399 12 497 -14z m2873 -1 c494 -132 825 -555 923 -1179 36
-229 28 -573 -17 -811 -36 -187 -154 -499 -195 -515 -8 -3 -13 -10 -9 -15 5
-9 -33 -7 -87 4 -10 2 -18 -2 -18 -8 0 -7 -4 -6 -9 2 -8 12 -12 12 -24 2 -11
-8 -16 -9 -19 -1 -2 8 -11 8 -31 1 -18 -7 -26 -7 -22 -1 3 6 -1 10 -10 10 -9
0 -14 -3 -12 -7 5 -8 -83 -8 -173 0 -25 2 -51 -1 -58 -6 -9 -7 -16 -7 -20 0
-4 6 -32 8 -67 6 -139 -9 -155 -9 -155 -3 0 4 -19 5 -42 3 l-43 -4 50 30 c170
99 290 334 336 661 18 127 15 472 -5 603 -52 334 -185 561 -378 647 -111 49
-279 49 -393 0 -184 -79 -308 -280 -372 -605 -26 -131 -26 -590 0 -720 59
-297 174 -502 327 -585 54 -29 54 -34 -4 -30 -68 5 -168 5 -172 1 -9 -9 -43
-11 -49 -2 -3 5 -15 7 -27 3 -16 -4 -19 -2 -13 9 7 11 6 12 -6 2 -11 -9 -48
-12 -117 -10 -56 2 -102 0 -102 -3 0 -3 -11 -6 -25 -6 -16 -1 -22 2 -18 10 4
7 1 6 -9 -1 -8 -7 -18 -10 -22 -6 -10 11 -56 11 -56 1 0 -5 -5 -6 -12 -2 -7 4
-37 8 -68 8 l-55 1 -48 95 c-78 156 -138 364 -168 590 -16 121 -16 465 0 595
29 237 86 429 182 616 181 351 458 568 812 635 111 21 399 12 500 -15z
m-19985 -1262 c-5 -1341 -1 -1258 -55 -1259 -13 0 -23 -6 -23 -12 0 -10 -2
-10 -8 -1 -9 14 -151 22 -171 9 -8 -5 -16 -4 -21 4 -6 10 -15 10 -37 2 -17 -5
-36 -6 -43 -2 -7 5 -23 5 -34 1 -22 -7 -66 -6 -101 2 -11 2 -25 0 -32 -5 -7
-5 -14 -5 -17 1 -4 5 -18 7 -32 5 -15 -3 -32 -6 -38 -7 -16 -3 -23 358 -25
1241 l-1 732 -295 0 -295 0 0 265 0 265 616 0 617 0 -5 -1241z m1747 581 l497
-661 64 88 c35 48 252 345 481 660 l418 572 313 1 312 0 0 -633 c0 -874 -12
-1867 -22 -1861 -4 3 -8 -1 -8 -8 0 -8 -3 -9 -8 -3 -7 10 -182 15 -182 5 0 -3
-11 -6 -25 -6 -16 -1 -22 2 -18 10 4 7 1 6 -9 -1 -8 -7 -18 -10 -22 -6 -12 13
-57 11 -52 -2 2 -6 -2 -12 -10 -12 -7 0 -11 4 -8 9 6 9 12 9 -143 11 -66 1
-119 -1 -116 -5 2 -5 -1 -8 -6 -8 -8 0 -12 222 -13 711 l-3 710 -460 -591
-460 -591 -40 3 -40 3 -455 607 c-250 334 -458 607 -462 608 -5 0 -8 -326 -8
-724 l0 -725 -105 2 c-58 1 -105 0 -105 -3 0 -3 -11 -6 -25 -6 -16 -1 -22 2
-18 10 4 7 1 6 -9 -1 -8 -7 -18 -10 -22 -6 -12 13 -57 11 -52 -2 2 -6 -2 -12
-10 -12 -7 0 -11 4 -8 9 6 10 6 10 -148 9 l-128 -1 0 1250 0 1250 308 0 309 0
498 -660z m13525 392 l0 -269 -69 -144 c-38 -79 -160 -335 -271 -569 -589
-1236 -594 -1246 -619 -1253 -11 -3 -23 -2 -25 1 -3 6 -111 8 -118 2 -11 -7
-48 -8 -53 -1 -3 5 -15 7 -27 3 -16 -4 -19 -2 -13 9 7 11 6 12 -6 2 -11 -9
-48 -12 -117 -10 -56 2 -102 0 -102 -3 0 -3 -11 -6 -25 -6 -16 -1 -22 2 -18
10 4 7 1 6 -9 -1 -8 -7 -18 -10 -22 -6 -12 13 -57 11 -52 -2 2 -6 -2 -12 -10
-12 -7 0 -11 4 -8 9 7 12 -10 10 -22 -2 -8 -8 -14 -7 -23 3 -13 16 99 253 788
1661 83 170 151 310 151 312 0 2 -317 4 -705 4 l-705 0 0 265 0 265 1040 0
1040 0 0 -268z m6770 -359 l1 -628 20 25 c11 14 246 296 521 628 l501 602 400
0 400 0 -20 -22 c-11 -13 -172 -207 -359 -433 -186 -225 -410 -495 -496 -599
-87 -104 -156 -192 -154 -195 2 -3 113 -195 248 -426 385 -661 468 -806 468
-814 0 -5 -60 -7 -132 -7 -73 1 -148 -1 -168 -4 -19 -3 -56 -3 -82 0 -31 4
-48 3 -48 -4 0 -6 -4 -5 -9 3 -8 12 -12 12 -24 2 -11 -8 -16 -9 -19 -1 -2 8
-11 8 -31 1 -18 -7 -26 -7 -22 -1 3 6 -1 10 -10 10 -9 0 -14 -3 -12 -7 3 -5
-31 -7 -75 -7 -57 1 -83 5 -89 15 -5 8 -102 174 -217 369 -114 195 -210 355
-213 355 -3 0 -90 -101 -192 -225 l-187 -224 0 -138 c0 -85 -4 -138 -10 -139
-5 -1 -16 -2 -22 -3 -7 -1 -22 2 -33 7 -17 9 -18 8 -7 -5 11 -13 8 -15 -25 -9
-33 6 -98 7 -98 1 0 -7 -45 -8 -50 -1 -3 5 -15 7 -27 3 -16 -4 -19 -2 -13 9 7
11 6 12 -6 2 -11 -9 -48 -12 -117 -10 -56 2 -102 0 -102 -3 0 -3 -11 -6 -25
-6 -16 -1 -22 2 -18 10 4 6 0 5 -9 -2 -10 -8 -19 -9 -22 -3 -4 5 -15 8 -26 6
-20 -4 -20 6 -20 1246 l0 1249 315 0 315 0 0 -627z m11350 -618 c0 -945 -3
-1245 -12 -1245 -6 0 -20 -7 -30 -17 -17 -15 -18 -15 -18 0 0 10 -5 17 -11 17
-5 0 -8 -4 -5 -8 3 -5 -22 -7 -55 -5 -42 2 -59 -1 -59 -10 0 -9 -2 -9 -8 0 -9
14 -151 22 -171 9 -10 -6 -16 -6 -18 1 -2 6 -27 9 -61 6 -31 -2 -85 -5 -119
-7 l-63 -3 0 501 c0 276 -3 720 -7 989 l-6 487 -294 0 -293 0 0 265 0 265 615
0 615 0 0 -1245z m1345 1122 c95 -129 883 -1177 894 -1190 4 -4 28 21 53 55
25 35 242 332 482 661 l437 597 310 0 309 0 0 -1253 0 -1253 -29 0 c-16 1 -33
4 -37 8 -4 4 -13 3 -20 -3 -8 -6 -14 -6 -18 0 -4 6 -18 6 -35 1 -16 -4 -31 -6
-34 -4 -6 6 -157 11 -157 5 0 -3 -11 -7 -25 -7 -16 -1 -22 2 -18 10 4 7 1 6
-9 -1 -8 -7 -18 -10 -22 -6 -12 13 -57 11 -52 -2 2 -6 -2 -12 -10 -12 -7 0
-11 4 -8 9 6 9 4 9 -86 11 l-65 2 -6 460 c-3 253 -7 568 -8 700 -1 210 -3 237
-16 225 -8 -8 -214 -271 -458 -585 l-443 -570 -40 -3 -40 -3 -460 611 -459
610 -7 -702 c-4 -386 -8 -713 -10 -727 -3 -26 -33 -37 -54 -20 -7 6 -15 6 -18
1 -2 -4 -24 -7 -48 -5 -85 6 -198 8 -198 3 0 -3 -11 -6 -25 -6 -16 -1 -22 2
-18 10 4 7 1 6 -9 -1 -8 -7 -18 -10 -22 -6 -12 13 -57 11 -52 -2 2 -6 -2 -12
-10 -12 -7 0 -11 4 -8 9 6 9 3 10 -87 10 l-66 1 -6 345 c-4 190 -7 752 -7
1249 l0 903 313 -1 312 0 90 -122z m-28994 -1264 l-4 -383 387 0 386 0 0 -255
0 -255 -385 0 -385 0 0 -105 c0 -67 -4 -105 -11 -105 -5 0 -7 -5 -3 -11 5 -8
1 -8 -14 0 -26 14 -35 14 -27 1 3 -5 2 -10 -4 -10 -5 0 -13 5 -16 10 -4 6 -10
8 -14 6 -15 -10 -61 -14 -65 -7 -4 6 -122 6 -271 0 -5 0 -25 1 -42 2 l-33 2 0
109 0 108 -390 0 -390 0 0 255 0 255 385 0 385 0 0 385 0 385 258 -2 257 -3
-4 -382z m19859 2 l0 -385 380 0 380 0 0 -255 0 -255 -380 0 -380 0 -5 -22
c-3 -13 -6 -63 -8 -113 -2 -74 -5 -89 -17 -86 -8 2 -19 3 -25 3 -24 -2 -133
-1 -160 2 -16 1 -36 -2 -43 -8 -9 -6 -16 -6 -20 1 -4 6 -31 9 -62 7 -187 -13
-170 -23 -170 106 l0 110 -385 0 -385 0 0 255 0 255 385 0 385 0 0 385 0 385
255 0 255 0 0 -385z m13540 0 l0 -385 380 0 380 0 0 -255 0 -255 -385 0 -385
0 0 -111 0 -111 -44 3 c-24 2 -42 1 -39 -3 2 -5 0 -8 -6 -8 -5 0 -13 5 -16 10
-3 6 -20 10 -36 10 -18 0 -28 -4 -24 -10 3 -5 2 -10 -4 -10 -5 0 -13 5 -16 10
-4 6 -10 8 -14 6 -15 -10 -61 -14 -65 -7 -3 4 -57 6 -120 6 l-116 -1 0 108 0
108 -385 0 -385 0 0 255 0 255 385 0 385 0 0 385 0 385 255 0 255 0 0 -385z
m-31290 -3300 l0 -485 -70 0 -70 0 0 485 0 485 70 0 70 0 0 -485z m8285 471
c254 -67 409 -319 354 -578 -40 -189 -190 -340 -376 -378 -73 -16 -202 -8
-273 16 -124 42 -242 156 -291 281 -31 80 -38 237 -14 319 49 170 173 294 336
338 69 19 199 20 264 2z m2185 -157 l0 -171 30 25 c96 82 262 74 352 -17 64
-64 68 -83 68 -373 l0 -263 -70 0 -70 0 0 225 c0 248 -4 272 -58 317 -47 39
-102 45 -160 16 -82 -41 -86 -56 -90 -325 l-4 -233 -69 0 -69 0 0 485 0 485
70 0 70 0 0 -171z m23530 -314 l0 -486 -67 3 -68 3 -3 37 -3 37 -44 -33 c-54
-42 -127 -60 -214 -54 -118 9 -213 71 -272 180 -33 61 -34 67 -34 173 0 105 2
114 33 177 55 111 151 177 273 186 87 6 160 -12 215 -54 l44 -34 0 175 0 175
70 0 70 0 0 -485z m-45078 132 l3 -344 30 -48 c44 -71 99 -98 192 -93 60 3 78
8 114 33 23 17 52 48 63 70 20 38 21 58 24 383 l3 342 75 0 75 0 -3 -358 -3
-357 -33 -67 c-37 -75 -88 -124 -168 -160 -41 -19 -66 -23 -159 -23 -101 0
-115 3 -169 29 -75 37 -131 93 -165 165 l-26 56 -3 358 -3 357 75 0 75 0 3
-343z m10028 258 l0 -85 -75 0 -75 0 0 78 c0 43 3 82 7 85 3 4 37 7 75 7 l68
0 0 -85z m13010 0 l0 -85 -70 0 -70 0 0 85 0 85 70 0 70 0 0 -85z m1302 -258
l3 -344 30 -48 c40 -65 97 -95 179 -95 80 0 140 29 181 88 l30 44 3 349 3 349
75 0 75 0 -3 -362 -3 -363 -25 -50 c-57 -116 -164 -184 -304 -192 -174 -11
-302 60 -369 205 -21 45 -22 61 -25 405 l-3 357 75 0 75 0 3 -343z m9948 273
l0 -70 -125 0 -125 0 0 -410 0 -410 -75 0 -75 0 0 410 0 409 -127 3 -128 3 -3
54 c-2 29 -1 60 2 67 4 12 65 14 331 14 l325 0 0 -70z m4805 -15 l0 -80 -72
-3 -73 -3 0 86 0 86 73 -3 72 -3 0 -80z m2560 15 l0 -65 -122 -3 -123 -3 -2
-407 -3 -407 -72 -3 -73 -3 0 411 0 410 -130 0 -130 0 0 70 0 70 328 -2 327
-3 0 -65z m-3007 -112 l3 -77 77 -3 77 -3 0 -65 0 -65 -77 -3 -78 -3 0 -179
c0 -98 4 -190 10 -204 12 -33 43 -48 102 -49 l48 -1 0 -63 0 -63 -72 1 c-86 1
-127 14 -169 54 -57 53 -63 80 -67 302 l-4 202 -56 3 -57 3 -3 68 -3 67 30 0
c16 0 37 3 46 6 23 9 45 58 45 102 0 21 3 42 7 46 4 4 37 6 73 4 l65 -3 3 -77z
m4670 0 l3 -77 77 -3 77 -3 0 -65 0 -65 -77 -3 -78 -3 0 -179 c0 -110 4 -188
11 -203 15 -34 50 -50 104 -50 l45 0 0 -64 0 -63 -72 0 c-83 0 -137 20 -180
66 -46 50 -51 76 -56 291 l-4 202 -57 3 -56 3 -3 68 -3 67 36 0 c54 0 85 36
85 98 0 27 3 52 7 56 4 4 37 6 73 4 l65 -3 3 -77z m-42219 -85 c59 -19 131
-77 154 -125 l16 -33 -42 -22 c-56 -30 -63 -29 -100 13 -37 43 -81 64 -132 64
-62 0 -104 -33 -105 -81 0 -41 37 -64 163 -103 100 -31 124 -43 157 -76 96
-96 68 -250 -57 -311 -40 -20 -63 -24 -143 -24 -84 0 -102 3 -152 28 -58 28
-106 74 -133 127 l-15 30 50 25 c27 14 53 25 57 25 4 0 19 -16 32 -36 76 -111
274 -115 274 -4 0 47 -25 63 -159 105 -124 39 -176 73 -200 132 -18 42 -18
115 0 156 17 43 88 103 134 115 58 16 145 13 201 -5z m747 -4 c122 -46 195
-151 202 -295 l5 -84 -262 0 c-143 0 -261 -4 -261 -9 0 -21 25 -79 47 -109 71
-95 244 -97 314 -3 l22 30 59 -30 58 -29 -14 -29 c-20 -38 -80 -89 -135 -115
-37 -17 -65 -21 -146 -21 -89 0 -106 3 -156 28 -103 50 -170 143 -191 266 -32
185 71 359 242 412 52 15 158 10 216 -12z m712 -51 l3 -68 -59 0 c-70 0 -117
-26 -144 -80 -16 -30 -18 -66 -18 -263 l0 -228 -72 3 -73 3 0 345 0 345 68 3
67 3 0 -42 0 -41 39 35 c25 22 55 38 78 42 21 4 43 8 48 10 6 2 21 3 35 2 24
-2 25 -6 28 -69z m438 57 c62 -18 111 -54 146 -107 16 -22 28 -44 28 -47 0 -4
-24 -19 -53 -33 l-53 -26 -33 40 c-62 74 -159 92 -212 39 -63 -63 -28 -103
131 -154 128 -41 173 -70 201 -131 50 -109 -7 -228 -128 -272 -52 -18 -163
-17 -220 2 -69 24 -129 68 -158 118 -14 23 -25 47 -25 53 0 6 23 20 51 32 l50
22 42 -47 c49 -55 88 -74 157 -74 44 0 56 5 81 29 64 64 27 109 -128 155 -127
37 -176 69 -204 130 -52 115 10 237 141 277 42 12 134 10 186 -6z m1037 -23
c289 -142 249 -584 -59 -668 -177 -48 -355 32 -435 194 -20 40 -24 62 -24 152
0 96 3 110 28 160 69 135 187 203 344 197 67 -3 92 -9 146 -35z m768 23 c62
-22 101 -55 134 -116 l30 -54 0 -260 0 -260 -70 0 -70 0 -5 240 c-4 208 -7
245 -23 268 -53 81 -193 83 -250 3 -21 -29 -22 -43 -27 -271 l-5 -240 -70 0
-70 0 -3 348 -2 347 70 0 70 0 0 -42 c0 -42 1 -43 18 -23 58 69 174 94 273 60z
m1042 -23 c76 -38 129 -92 166 -171 22 -48 26 -70 26 -151 0 -88 -3 -101 -33
-162 -38 -77 -92 -130 -171 -167 -48 -22 -69 -26 -151 -26 -88 0 -101 3 -162
33 -122 60 -189 161 -196 298 -7 140 35 234 142 316 67 50 132 68 233 65 67
-3 92 -9 146 -35z m1452 -32 l0 -65 -60 -5 c-67 -6 -88 -16 -125 -55 -25 -26
-25 -27 -30 -268 l-5 -242 -72 -3 -73 -3 0 351 0 350 70 0 70 0 0 -42 c1 -33
3 -39 10 -26 23 39 124 79 190 75 24 -2 25 -5 25 -67z m657 56 c62 -18 117
-58 150 -107 15 -23 28 -45 28 -48 0 -4 -24 -19 -53 -33 l-53 -26 -33 40 c-62
74 -159 92 -212 39 -63 -63 -28 -103 131 -154 128 -41 173 -70 201 -131 50
-109 -7 -228 -128 -272 -52 -18 -163 -17 -220 2 -69 24 -129 68 -158 118 -14
23 -25 47 -25 53 0 6 23 20 51 32 l50 22 42 -47 c49 -55 88 -74 157 -74 44 0
56 5 81 29 64 64 27 109 -128 155 -127 37 -176 69 -204 130 -52 115 10 237
141 277 41 12 134 10 182 -5z m810 -18 c271 -125 271 -529 0 -656 -50 -24 -69
-27 -157 -27 -89 0 -106 3 -156 28 -63 30 -136 103 -168 164 -11 22 -25 69
-31 105 -30 173 68 341 234 400 76 27 202 21 278 -14z m831 -6 c49 -24 79 -48
107 -84 22 -27 40 -56 40 -63 0 -10 -119 -71 -124 -63 -47 79 -97 111 -174
112 -77 1 -136 -32 -177 -98 -26 -44 -30 -58 -30 -125 0 -65 4 -83 28 -123 33
-57 70 -84 133 -99 83 -19 169 20 210 94 10 17 14 17 72 -9 34 -15 62 -32 62
-39 0 -22 -59 -93 -103 -123 -102 -71 -250 -82 -360 -29 -204 100 -263 397
-112 565 83 92 155 123 280 119 68 -2 91 -7 148 -35z m1005 22 c63 -21 116
-63 145 -117 21 -40 22 -55 25 -309 l3 -268 -70 0 -71 0 0 40 0 41 -39 -31
c-78 -63 -215 -79 -306 -36 -58 27 -78 47 -100 99 -33 80 -8 181 59 232 45 34
121 57 264 80 l112 18 0 33 c0 45 -43 92 -94 104 -72 16 -138 -8 -181 -65
l-27 -34 -59 30 c-59 29 -59 29 -45 57 16 30 57 70 98 97 71 45 197 58 286 29z
m1037 -19 c56 -29 125 -100 125 -129 0 -6 -24 -24 -53 -38 l-53 -26 -22 34
c-32 49 -94 77 -154 72 -62 -6 -88 -29 -88 -79 0 -49 16 -60 141 -97 111 -34
145 -50 181 -89 34 -36 48 -73 48 -128 0 -121 -86 -195 -235 -203 -126 -6
-217 35 -286 132 -16 21 -29 44 -29 51 0 18 113 62 118 46 9 -26 63 -79 96
-95 64 -30 173 -14 190 29 24 63 -12 98 -138 135 -158 46 -217 93 -232 186
-14 90 45 184 137 217 72 27 182 19 254 -18z m8719 1 c25 -14 57 -42 72 -61
48 -63 54 -107 54 -372 l0 -244 -72 3 -73 3 -5 240 c-6 275 -8 282 -87 317
-75 33 -158 7 -193 -62 -18 -36 -20 -59 -20 -270 l0 -231 -72 3 -73 3 0 345 0
345 68 3 67 3 0 -43 0 -42 34 33 c48 46 97 62 182 58 56 -3 82 -10 118 -31z
m748 7 c53 -24 124 -86 151 -132 l18 -30 -62 -31 -61 -31 -35 41 c-79 92 -193
103 -280 27 -50 -44 -73 -98 -73 -177 0 -79 23 -133 73 -177 87 -76 201 -65
280 27 l35 41 56 -28 c35 -17 56 -33 56 -44 0 -30 -88 -117 -148 -146 -50 -25
-68 -28 -152 -28 -82 0 -103 4 -151 26 -143 67 -224 226 -198 388 23 143 98
235 232 283 69 25 193 20 259 -9z m1457 11 c67 -19 141 -90 159 -150 8 -28 12
-124 12 -293 l0 -251 -70 0 -70 0 0 40 0 41 -39 -31 c-66 -54 -182 -75 -272
-50 -152 42 -199 222 -87 331 48 46 115 69 281 95 l107 17 0 33 c0 71 -87 124
-173 104 -36 -8 -107 -53 -107 -68 0 -4 -4 -13 -9 -20 -6 -11 -21 -7 -70 17
l-62 32 18 30 c26 46 97 100 156 120 65 23 157 24 226 3z m1082 1 c62 -22 101
-55 134 -116 l30 -54 0 -260 0 -260 -70 0 -70 0 -5 240 c-5 263 -9 278 -68
309 -52 27 -97 29 -145 8 -79 -35 -81 -42 -87 -317 l-5 -240 -72 -3 -73 -3 0
351 0 350 70 0 70 0 0 -42 c0 -42 1 -43 18 -23 58 69 174 94 273 60z m1796 -1
c26 -9 63 -27 81 -41 31 -23 92 -98 92 -113 0 -7 -86 -50 -101 -50 -5 0 -24
16 -42 36 -59 68 -151 85 -206 38 -38 -31 -41 -71 -8 -101 12 -12 75 -37 140
-57 100 -31 124 -43 157 -76 96 -96 68 -250 -57 -311 -40 -20 -63 -24 -143
-24 -84 0 -102 3 -153 29 -60 29 -137 111 -137 145 0 15 75 61 99 61 5 0 19
-16 31 -35 66 -107 251 -117 275 -14 11 47 -26 74 -152 112 -125 38 -150 51
-189 103 -32 42 -43 121 -24 178 14 44 88 111 138 124 58 15 147 14 199 -4z
m779 -17 c108 -55 174 -168 174 -297 l0 -70 -261 0 -261 0 7 -32 c10 -48 55
-110 100 -135 80 -46 205 -23 256 46 l22 30 59 -30 58 -29 -14 -29 c-20 -38
-80 -89 -135 -115 -37 -17 -65 -21 -146 -21 -89 0 -106 3 -156 28 -173 84
-246 304 -163 488 39 87 132 167 219 190 17 5 66 7 110 5 63 -2 91 -8 131 -29z
m684 -37 l0 -70 -57 0 c-65 0 -111 -22 -140 -67 -16 -24 -18 -56 -21 -265 l-3
-239 -72 3 -72 3 0 345 0 345 68 3 67 3 0 -42 0 -41 39 35 c25 22 55 38 78 42
21 4 43 8 48 10 6 2 22 4 38 4 27 1 27 1 27 -69z m441 55 c65 -23 117 -63 146
-112 14 -24 24 -45 22 -47 -2 -2 -27 -15 -56 -30 l-52 -26 -21 34 c-26 42 -92
76 -149 76 -34 0 -49 -6 -72 -29 -57 -58 -25 -107 92 -141 117 -33 152 -48
190 -80 86 -71 93 -193 15 -278 -80 -89 -274 -96 -397 -15 -38 25 -99 104 -99
128 0 7 23 22 51 34 l52 21 40 -46 c49 -55 88 -74 156 -74 39 0 56 6 80 26 64
53 30 112 -83 145 -168 48 -216 76 -247 143 -52 115 10 237 141 277 43 13 146
10 191 -6z m7329 -55 l0 -70 -54 0 c-59 0 -103 -23 -140 -73 -20 -27 -21 -44
-24 -263 l-4 -234 -69 0 -69 0 0 350 0 351 68 -3 67 -3 6 -40 c3 -22 7 -34 8
-28 2 20 74 63 122 72 91 18 89 20 89 -59z m543 37 c41 -20 66 -42 90 -75 l32
-47 3 -278 3 -278 -68 3 -68 3 -3 32 -3 32 -47 -30 c-58 -37 -101 -49 -173
-49 -159 0 -257 105 -227 243 13 62 61 117 126 145 26 11 109 30 185 43 132
21 137 23 137 46 0 66 -59 115 -140 115 -57 0 -99 -20 -138 -67 l-29 -36 -57
28 c-31 15 -56 32 -56 39 0 13 36 61 65 87 91 80 254 100 368 44z m771 -1 c59
-34 101 -93 115 -157 6 -28 11 -156 11 -285 l0 -235 -72 3 -73 3 -5 240 c-6
274 -8 282 -87 317 -75 33 -164 4 -196 -65 -14 -30 -17 -71 -17 -266 l0 -232
-72 3 -73 3 -3 348 -2 347 70 0 70 0 0 -42 c1 -36 3 -40 13 -28 48 59 109 82
203 77 56 -3 82 -10 118 -31z m667 -3 c53 -30 119 -101 119 -129 0 -8 -24 -25
-52 -37 l-53 -23 -20 30 c-44 65 -141 94 -204 61 -31 -15 -41 -33 -41 -70 0
-38 33 -60 133 -90 109 -33 143 -49 180 -84 42 -38 60 -79 60 -137 0 -131
-116 -214 -281 -202 -115 8 -209 64 -253 151 l-19 37 56 28 c42 20 58 24 61
14 10 -27 57 -74 94 -92 73 -38 182 -18 195 35 16 66 -12 90 -143 126 -161 43
-226 105 -226 212 0 134 100 211 264 204 63 -3 86 -9 130 -34z m706 4 c28 -15
64 -43 79 -62 49 -65 53 -91 54 -362 l0 -253 -70 0 -70 0 0 40 0 40 -45 -34
c-78 -60 -225 -74 -310 -30 -94 49 -131 157 -87 256 37 85 111 120 320 153
l112 18 0 33 c0 45 -43 92 -94 104 -72 16 -138 -8 -181 -65 l-27 -34 -59 30
c-59 29 -59 29 -45 57 16 30 57 70 98 97 84 53 234 58 325 12z m729 18 c73
-21 140 -69 174 -122 17 -26 30 -50 30 -53 0 -4 -28 -19 -62 -33 -58 -26 -63
-26 -72 -10 -21 40 -77 81 -124 93 -95 22 -186 -23 -228 -114 -83 -178 62
-377 237 -325 41 13 96 56 115 92 9 16 14 15 72 -10 34 -15 62 -30 62 -33 0
-22 -66 -102 -106 -129 -99 -65 -242 -79 -346 -33 -66 29 -143 104 -174 170
-32 67 -43 185 -25 259 48 192 253 306 447 248z m1678 -24 c75 -36 126 -90
165 -171 22 -47 26 -68 26 -150 0 -82 -4 -103 -27 -152 -34 -73 -103 -142
-176 -176 -49 -23 -70 -27 -152 -27 -84 0 -102 3 -157 29 -73 33 -144 104
-176 174 -32 71 -36 209 -8 283 37 97 126 181 227 213 32 11 76 15 131 13 67
-3 92 -9 147 -36z m768 23 c57 -19 114 -73 142 -133 20 -43 21 -63 21 -301 l0
-255 -72 -3 -73 -3 0 231 c0 207 -2 235 -19 268 -36 69 -119 97 -194 64 -79
-35 -81 -42 -87 -317 l-5 -240 -72 -3 -73 -3 0 351 0 350 70 0 70 0 0 -40 0
-39 25 25 c60 60 173 81 267 48z m1590 -12 c65 -28 132 -100 157 -166 24 -64
36 -145 27 -180 l-6 -26 -255 0 c-245 0 -255 -1 -255 -19 0 -54 58 -132 117
-157 38 -17 120 -18 160 -3 15 5 45 27 66 47 l37 36 55 -27 c30 -15 55 -30 55
-35 0 -18 -53 -78 -91 -104 -67 -45 -131 -61 -223 -56 -136 8 -230 68 -288
186 -58 117 -51 279 17 383 34 52 108 109 168 131 69 25 193 20 259 -10z m669
13 c65 -23 117 -63 146 -112 14 -24 24 -45 22 -47 -2 -2 -27 -15 -56 -30 l-51
-25 -20 33 c-24 41 -94 76 -151 76 -34 0 -49 -6 -72 -29 -57 -58 -25 -107 92
-141 119 -34 159 -51 194 -81 83 -73 88 -194 11 -277 -80 -89 -274 -96 -397
-15 -38 25 -99 104 -99 128 0 7 23 22 51 34 l52 21 40 -46 c49 -55 88 -74 156
-74 92 0 144 76 87 129 -14 13 -65 35 -119 51 -125 36 -166 58 -201 107 -80
114 -20 260 124 304 43 13 146 10 191 -6z m1255 -6 c122 -46 195 -151 202
-295 l5 -84 -262 0 c-143 0 -261 -3 -261 -7 0 -28 25 -87 47 -113 78 -94 245
-94 314 -1 l22 30 59 -30 58 -29 -14 -29 c-20 -38 -80 -89 -135 -115 -69 -31
-226 -30 -298 3 -107 48 -189 171 -200 298 -15 179 85 334 247 384 52 15 158
10 216 -12z m-37734 -228 c3 -224 4 -241 24 -267 38 -51 70 -68 129 -68 66 0
100 21 133 84 21 42 22 56 22 267 l0 223 70 0 70 0 0 -350 0 -351 -67 3 -68 3
-3 32 -3 33 -37 -29 c-124 -96 -310 -55 -385 84 -21 38 -22 56 -25 308 l-3
267 70 0 70 0 3 -239z m3718 -111 l0 -351 -72 3 -73 3 -3 335 c-1 184 0 341 3
347 3 9 27 13 75 13 l70 0 0 -350z m13010 0 l0 -350 -70 0 -70 0 0 350 0 350
70 0 70 0 0 -350z m16055 0 l0 -345 -72 -3 -73 -3 0 351 0 351 73 -3 72 -3 0
-345z"/>
<path d="M23807 37023 c-270 -373 -307 -426 -307 -438 0 -14 26 -45 38 -45 4
0 92 29 195 65 104 36 197 65 209 65 11 0 105 -29 209 -65 201 -69 229 -72
229 -22 0 13 -74 125 -181 272 -224 310 -236 325 -259 325 -13 0 -55 -50 -133
-157z"/>
<path d="M23475 36014 c-583 -202 -527 -179 -565 -231 l-32 -47 163 -625 c89
-344 169 -634 177 -643 12 -14 31 -18 82 -18 38 0 71 5 78 12 9 9 12 157 12
606 0 361 4 600 10 611 6 12 81 43 222 91 117 40 219 78 226 83 8 7 12 46 12
131 0 124 -6 147 -39 145 -9 0 -164 -52 -346 -115z"/>
<path d="M24032 36118 c-18 -18 -16 -242 2 -261 8 -7 110 -47 228 -87 117 -40
216 -77 220 -84 4 -6 8 -280 8 -608 0 -529 2 -598 16 -612 20 -20 146 -23 162
-3 18 22 335 1255 329 1279 -4 13 -21 40 -39 60 -31 33 -64 46 -460 182 -235
80 -434 146 -441 146 -7 0 -18 -5 -25 -12z"/>
<path d="M21850 34314 c-316 -437 -579 -804 -584 -814 -10 -21 477 -1623 502
-1652 14 -17 60 -18 706 -18 610 0 694 2 714 16 21 14 22 22 22 144 0 104 -3
132 -16 144 -14 14 -78 16 -552 16 -295 0 -543 4 -550 8 -17 11 -184 559 -180
591 l3 26 575 5 c316 3 581 9 588 13 25 17 11 54 -49 125 l-61 72 -564 0
c-526 0 -564 1 -573 18 -16 31 -171 544 -171 568 0 12 6 26 13 31 6 4 251 10
542 13 l530 5 0 115 0 115 -445 5 c-245 3 -451 9 -457 13 -30 19 -6 63 175
312 l188 260 203 3 c212 3 231 6 231 45 0 37 -152 602 -163 609 -39 25 -47 15
-627 -788z"/>
<path d="M25403 35098 c-6 -7 -45 -148 -88 -312 -57 -220 -75 -303 -68 -315 9
-14 40 -16 215 -19 198 -2 206 -3 225 -25 28 -31 363 -496 370 -514 3 -7 -3
-23 -12 -33 -17 -19 -34 -20 -455 -20 -326 0 -439 -3 -448 -12 -8 -8 -12 -47
-12 -108 0 -61 4 -100 12 -108 9 -9 140 -12 529 -12 484 0 518 -1 539 -18 l23
-18 -87 -284 c-48 -157 -92 -290 -98 -297 -8 -10 -130 -13 -567 -13 -306 0
-561 -4 -566 -8 -27 -19 -125 -141 -125 -155 0 -9 7 -23 16 -31 14 -14 80 -16
583 -16 498 0 570 -2 581 -15 11 -13 -2 -65 -75 -303 -48 -158 -92 -293 -98
-299 -7 -10 -130 -13 -551 -13 -408 0 -545 -3 -554 -12 -8 -8 -12 -56 -12
-150 0 -126 2 -138 19 -148 31 -16 1392 -14 1413 3 17 13 508 1600 508 1639 0
14 -229 338 -579 823 -598 828 -604 836 -638 793z"/>
<path d="M20666 31934 c-191 -273 -351 -504 -353 -515 -11 -41 12 -49 141 -49
l121 0 262 374 c145 206 265 380 268 387 3 8 -16 78 -42 156 l-48 142 -349
-495z"/>
<path d="M26818 32278 l-47 -141 134 -191 c73 -105 194 -276 268 -381 l134
-190 117 -3 c125 -3 146 3 146 42 0 19 -681 998 -698 1004 -4 1 -29 -62 -54
-140z"/>
<path d="M21050 31780 c-68 -96 -161 -228 -206 -292 l-83 -118 299 0 c165 0
300 3 300 8 0 4 -42 135 -93 292 l-93 284 -124 -174z"/>
<path d="M26706 31939 c-33 -92 -184 -564 -182 -566 2 -2 136 -2 299 -1 l297
3 -201 285 c-110 156 -202 286 -204 289 -3 2 -7 -2 -9 -10z"/>
<path d="M19866 27405 c-49 -17 -113 -78 -137 -130 -12 -27 -19 -63 -19 -110
0 -116 44 -187 150 -240 54 -28 153 -24 216 8 92 47 135 119 135 228 1 110
-44 189 -133 233 -60 30 -147 35 -212 11z"/>
<path d="M34190 27399 c-58 -26 -87 -53 -115 -109 -82 -161 3 -347 173 -380
105 -19 217 29 268 115 39 68 45 170 14 243 -27 62 -91 123 -148 140 -60 18
-141 14 -192 -9z"/>
<path d="M47171 27406 c-126 -45 -192 -200 -145 -338 58 -172 302 -218 426
-80 38 42 68 120 68 177 0 96 -60 192 -144 231 -57 27 -147 31 -205 10z"/>
<path d="M24930 27160 l0 -250 68 0 c131 0 211 41 256 132 47 94 33 218 -32
290 -54 60 -100 78 -204 78 l-88 0 0 -250z"/>
<path d="M40167 27363 c-3 -4 -25 -72 -50 -150 l-45 -143 99 0 c54 0 99 1 99
3 -1 17 -99 296 -103 290z"/>
<path d="M51460 27340 l0 -80 104 0 c89 0 107 3 130 21 20 16 26 29 26 59 0
30 -6 43 -26 59 -23 18 -41 21 -130 21 l-104 0 0 -80z"/>
<path d="M51460 27015 l0 -105 105 0 c145 0 187 24 187 105 0 81 -42 105 -187
105 l-105 0 0 -105z"/>
<path d="M52767 27227 c-26 -78 -47 -146 -47 -150 0 -4 43 -7 95 -7 52 0 95 4
95 9 0 11 -90 291 -93 291 -1 0 -24 -64 -50 -143z"/>
<path d="M55071 27228 c-24 -73 -46 -139 -48 -145 -4 -10 18 -13 91 -13 67 0
96 4 96 12 0 20 -83 278 -89 278 -4 0 -26 -60 -50 -132z"/>
<path d="M34460 18888 c-58 -40 -75 -72 -75 -143 0 -103 56 -160 155 -160 63
0 95 16 134 69 30 39 30 143 0 183 -35 48 -82 73 -134 73 -32 0 -57 -7 -80
-22z"/>
<path d="M39630 18836 l0 -76 65 0 c75 0 105 20 105 69 0 52 -29 74 -104 79
l-66 4 0 -76z"/>
<path d="M40322 18793 c-18 -49 -32 -92 -32 -96 0 -4 30 -7 66 -7 75 0 72 -13
25 115 l-28 77 -31 -89z"/>
<path d="M40960 18835 l0 -75 68 0 c80 0 102 15 102 73 0 52 -35 77 -111 77
l-59 0 0 -75z"/>
<path d="M43600 18836 l0 -76 69 0 c61 0 72 3 85 22 23 32 20 81 -5 104 -14
12 -40 19 -85 22 l-64 4 0 -76z"/>
<path d="M22938 16989 c-10 -10 -18 -30 -18 -44 0 -16 -6 -25 -15 -25 -8 0
-15 -7 -15 -15 0 -8 7 -15 15 -15 13 0 15 -31 15 -220 0 -156 3 -220 11 -220
8 0 8 -5 -1 -15 -7 -8 -21 -15 -31 -15 -11 0 -19 -7 -19 -15 0 -10 -10 -15
-34 -15 -19 0 -38 -5 -42 -12 -4 -7 -3 -8 4 -4 7 4 12 2 12 -3 0 -6 -20 -11
-45 -11 -33 0 -45 -4 -45 -15 0 -10 -10 -15 -30 -15 -20 0 -30 -5 -30 -15 0
-10 -11 -15 -35 -15 -24 0 -35 -5 -35 -15 0 -10 -10 -15 -30 -15 -25 0 -30 4
-30 25 0 14 -4 25 -10 25 -5 0 -10 -11 -10 -25 0 -14 5 -25 10 -25 6 0 10 -7
10 -15 0 -10 -10 -15 -30 -15 -20 0 -30 -5 -30 -15 0 -8 -7 -15 -15 -15 -8 0
-15 -9 -15 -20 0 -11 6 -20 14 -20 8 0 16 -7 20 -15 3 -8 17 -15 31 -15 16 0
25 -6 25 -15 0 -10 10 -15 30 -15 20 0 30 -5 30 -15 0 -8 9 -15 20 -15 11 0
20 -7 20 -15 0 -10 10 -15 30 -15 19 0 30 -5 30 -14 0 -8 14 -17 30 -21 17 -4
30 -10 30 -15 0 -5 13 -11 29 -15 16 -3 32 -13 35 -21 3 -8 10 -14 16 -14 6 0
18 -7 26 -15 9 -8 24 -15 35 -15 10 0 19 -7 19 -15 0 -10 10 -15 30 -15 20 0
30 5 30 15 0 10 10 15 30 15 19 0 30 5 30 14 0 8 13 17 29 21 16 3 32 13 35
21 3 8 12 14 21 14 8 0 15 4 15 9 0 5 14 12 30 16 17 4 30 13 30 21 0 9 11 14
30 14 20 0 30 5 30 15 0 8 9 15 20 15 11 0 20 7 20 15 0 9 9 15 25 15 16 0 25
6 25 15 0 10 10 15 30 15 20 0 30 5 30 15 0 8 9 15 20 15 15 0 20 7 20 28 0
15 -9 35 -20 45 -11 9 -20 26 -20 37 0 11 -7 20 -15 20 -9 0 -15 9 -15 24 0
13 -7 26 -15 30 -8 3 -15 12 -15 21 0 8 -7 15 -15 15 -10 0 -15 10 -15 30 0
20 -5 30 -15 30 -8 0 -15 9 -15 20 0 11 -7 20 -15 20 -10 0 -15 10 -15 30 0
20 -5 30 -15 30 -9 0 -15 9 -15 25 0 16 -6 25 -15 25 -8 0 -15 9 -15 20 0 11
-6 20 -14 20 -8 0 -17 14 -21 30 -4 17 -10 30 -15 30 -5 0 -11 14 -15 30 -4
17 -13 30 -21 30 -8 0 -14 9 -14 20 0 11 -7 20 -15 20 -10 0 -15 10 -15 30 0
20 -5 30 -15 30 -8 0 -15 7 -15 15 0 8 -7 15 -15 15 -10 0 -15 10 -15 30 0 20
-5 30 -15 30 -10 0 -15 10 -15 30 0 34 -16 38 -42 9z"/>
<path d="M22860 16845 c0 -8 5 -15 10 -15 6 0 10 7 10 15 0 8 -4 15 -10 15 -5
0 -10 -7 -10 -15z"/>
<path d="M22830 16805 c0 -8 5 -15 10 -15 6 0 10 7 10 15 0 8 -4 15 -10 15 -5
0 -10 -7 -10 -15z"/>
<path d="M22800 16745 c0 -8 5 -15 10 -15 6 0 10 7 10 15 0 8 -4 15 -10 15 -5
0 -10 -7 -10 -15z"/>
<path d="M22770 16700 c0 -16 5 -30 10 -30 6 0 10 14 10 30 0 17 -4 30 -10 30
-5 0 -10 -13 -10 -30z"/>
<path d="M22730 16655 c0 -8 7 -15 15 -15 8 0 15 7 15 15 0 8 -7 15 -15 15 -8
0 -15 -7 -15 -15z"/>
<path d="M22700 16595 c0 -8 7 -15 15 -15 8 0 15 7 15 15 0 8 -7 15 -15 15 -8
0 -15 -7 -15 -15z"/>
<path d="M22670 16561 c0 -5 7 -11 15 -15 9 -3 15 0 15 9 0 8 -7 15 -15 15 -8
0 -15 -4 -15 -9z"/>
<path d="M22640 16495 c0 -8 7 -15 15 -15 8 0 15 7 15 15 0 8 -7 15 -15 15 -8
0 -15 -7 -15 -15z"/>
<path d="M22610 16434 c0 -17 22 -14 28 4 2 7 -3 12 -12 12 -9 0 -16 -7 -16
-16z"/>
<path d="M22580 16405 c0 -8 5 -15 10 -15 6 0 10 7 10 15 0 8 -4 15 -10 15 -5
0 -10 -7 -10 -15z"/>
<path d="M22550 16345 c0 -8 5 -15 10 -15 6 0 10 7 10 15 0 8 -4 15 -10 15 -5
0 -10 -7 -10 -15z"/>
<path d="M23420 16060 c0 -5 -9 -10 -20 -10 -11 0 -20 -7 -20 -15 0 -9 -9 -15
-25 -15 -14 0 -28 -6 -31 -14 -3 -8 -19 -18 -35 -21 -16 -4 -29 -13 -29 -21 0
-9 -11 -14 -30 -14 -20 0 -30 -5 -30 -15 0 -8 -9 -15 -20 -15 -11 0 -20 -7
-20 -15 0 -10 -10 -15 -30 -15 -20 0 -30 -5 -30 -15 0 -10 -10 -15 -30 -15
-19 0 -30 -5 -30 -14 0 -8 -13 -17 -30 -21 -16 -4 -30 -11 -30 -16 0 -5 -6 -9
-13 -9 -7 0 -20 -9 -30 -20 -14 -17 -17 -42 -17 -158 0 -97 -4 -142 -12 -151
-10 -11 -10 -13 0 -7 8 5 12 0 12 -14 0 -25 22 -50 44 -50 10 0 16 9 16 25 0
16 6 25 15 25 8 0 15 9 15 20 0 11 7 20 15 20 8 0 15 7 15 15 0 8 6 15 14 15
8 0 17 14 21 30 4 17 11 30 16 30 5 0 9 7 9 15 0 8 7 15 15 15 8 0 15 6 15 13
0 7 9 20 20 30 11 9 20 23 20 31 0 8 7 16 15 20 8 3 15 12 15 21 0 8 7 15 15
15 10 0 15 10 15 30 0 20 5 30 15 30 8 0 15 7 15 15 0 8 7 15 15 15 8 0 15 7
15 15 0 8 7 15 15 15 10 0 15 10 15 30 0 20 5 30 15 30 8 0 15 7 15 15 0 9 7
18 15 21 8 4 15 12 15 20 0 8 9 22 20 31 11 10 20 23 20 30 0 7 5 13 10 13 6
0 10 5 10 10 0 6 -4 10 -10 10 -5 0 -10 -4 -10 -10z"/>
<path d="M22490 16030 c0 -5 5 -10 10 -10 6 0 10 5 10 10 0 6 -4 10 -10 10 -5
0 -10 -4 -10 -10z"/>
<path d="M22520 16000 c0 -5 5 -10 10 -10 6 0 10 5 10 10 0 6 -4 10 -10 10 -5
0 -10 -4 -10 -10z"/>
<path d="M22550 15965 c0 -16 9 -19 34 -9 25 9 19 24 -9 24 -16 0 -25 -6 -25
-15z"/>
<path d="M22610 15940 c0 -5 11 -10 25 -10 14 0 25 5 25 10 0 6 -11 10 -25 10
-14 0 -25 -4 -25 -10z"/>
<path d="M22580 15910 c0 -5 5 -10 10 -10 6 0 10 5 10 10 0 6 -4 10 -10 10 -5
0 -10 -4 -10 -10z"/>
<path d="M22670 15905 c0 -8 7 -15 15 -15 8 0 15 7 15 15 0 8 -7 15 -15 15 -8
0 -15 -7 -15 -15z"/>
<path d="M22610 15874 c0 -17 22 -14 28 4 2 7 -3 12 -12 12 -9 0 -16 -7 -16
-16z"/>
<path d="M22730 15875 c0 -8 7 -15 15 -15 8 0 15 7 15 15 0 8 -7 15 -15 15 -8
0 -15 -7 -15 -15z"/>
<path d="M22790 15845 c0 -8 7 -15 15 -15 8 0 15 7 15 15 0 8 -7 15 -15 15 -8
0 -15 -7 -15 -15z"/>
<path d="M22820 15810 c0 -5 9 -10 20 -10 11 0 20 5 20 10 0 6 -9 10 -20 10
-11 0 -20 -4 -20 -10z"/>
<path d="M22670 15785 c0 -8 7 -15 15 -15 8 0 15 -7 15 -15 0 -8 7 -15 15 -15
8 0 15 7 15 16 0 8 -5 12 -11 9 -6 -4 -13 2 -16 14 -6 24 -33 29 -33 6z"/>
<path d="M22890 15780 c0 -5 5 -10 10 -10 6 0 10 5 10 10 0 6 -4 10 -10 10 -5
0 -10 -4 -10 -10z"/>
<path d="M22743 15703 c-18 -7 -16 -23 2 -23 8 0 15 7 15 15 0 8 -1 15 -2 14
-2 0 -9 -3 -15 -6z"/>
<path d="M22770 15660 c0 -5 5 -10 10 -10 6 0 10 5 10 10 0 6 -4 10 -10 10 -5
0 -10 -4 -10 -10z"/>
<path d="M22800 15630 c0 -5 5 -10 10 -10 6 0 10 5 10 10 0 6 -4 10 -10 10 -5
0 -10 -4 -10 -10z"/>
<path d="M22830 15565 c0 -8 5 -15 10 -15 6 0 10 7 10 15 0 8 -4 15 -10 15 -5
0 -10 -7 -10 -15z"/>
<path d="M22860 15535 c0 -8 5 -15 10 -15 6 0 10 7 10 15 0 8 -4 15 -10 15 -5
0 -10 -7 -10 -15z"/>
<path d="M50573 16500 c-3 -11 -12 -20 -19 -20 -8 0 -14 -7 -14 -15 0 -8 -7
-15 -15 -15 -8 0 -15 -7 -15 -15 0 -8 -7 -15 -15 -15 -8 0 -15 -7 -15 -15 0
-8 -7 -15 -15 -15 -8 0 -15 -7 -15 -15 0 -8 -7 -15 -15 -15 -8 0 -15 -7 -15
-15 0 -8 -7 -15 -15 -15 -8 0 -15 -7 -15 -15 0 -8 -7 -15 -15 -15 -8 0 -15 -6
-15 -14 0 -7 -9 -16 -20 -19 -11 -3 -20 -12 -20 -21 0 -9 -7 -16 -15 -16 -10
0 -15 -10 -15 -30 0 -23 4 -30 20 -30 11 0 20 -7 20 -15 0 -8 7 -15 15 -15 8
0 15 -7 15 -15 0 -8 7 -15 15 -15 8 0 15 -7 15 -15 0 -8 7 -15 15 -15 8 0 15
-7 15 -15 0 -8 7 -15 15 -15 8 0 15 -7 15 -15 0 -8 7 -15 15 -15 8 0 15 -7 15
-15 0 -8 7 -15 15 -15 8 0 15 -9 15 -20 0 -11 7 -20 15 -20 8 0 15 -7 15 -15
0 -8 7 -15 15 -15 8 0 15 -7 15 -15 0 -18 30 -20 31 -2 0 6 0 51 -1 98 -2 118
5 139 41 139 19 0 29 5 29 15 0 8 7 15 15 15 8 0 15 6 15 14 0 8 14 17 30 21
17 4 30 11 30 16 0 5 7 9 15 9 8 0 15 7 15 15 0 8 7 15 15 15 8 0 15 6 15 13
0 21 47 57 74 57 16 0 26 5 26 15 0 13 -24 15 -160 15 l-160 0 0 80 c0 51 -4
80 -11 80 -6 0 -13 -9 -16 -20z"/>
<path d="M51107 16513 c-4 -3 -7 -59 -7 -124 l0 -117 -30 -7 c-16 -4 -30 -13
-30 -21 0 -8 -7 -14 -15 -14 -8 0 -15 -7 -15 -15 0 -8 -9 -15 -20 -15 -11 0
-20 -4 -20 -10 0 -5 -11 -12 -25 -16 -14 -3 -25 -12 -25 -20 0 -8 -9 -14 -20
-14 -11 0 -20 -7 -20 -15 0 -8 -7 -15 -15 -15 -8 0 -15 -7 -15 -15 0 -10 -10
-15 -30 -15 -20 0 -30 -5 -30 -15 0 -13 24 -15 155 -15 l155 0 0 -80 c0 -64 3
-80 15 -80 8 0 15 7 15 15 0 8 5 15 11 15 15 0 59 42 59 58 0 6 7 12 15 12 8
0 15 7 15 15 0 8 7 15 15 15 8 0 15 7 15 15 0 8 7 15 15 15 8 0 15 7 15 15 0
8 7 15 15 15 8 0 15 7 15 15 0 8 7 15 15 15 8 0 15 7 15 15 0 8 7 15 15 15 8
0 15 7 15 15 0 8 6 15 14 15 7 0 16 10 20 23 8 32 8 37 -6 37 -16 0 -58 44
-58 59 0 6 -7 11 -15 11 -8 0 -15 7 -15 15 0 8 -7 15 -15 15 -8 0 -15 7 -15
15 0 8 -7 15 -15 15 -8 0 -15 7 -15 15 0 8 -7 15 -15 15 -8 0 -15 7 -15 15 0
8 -7 15 -15 15 -8 0 -15 7 -15 15 0 8 -7 15 -15 15 -8 0 -15 7 -15 15 0 8 -7
15 -16 15 -9 0 -18 9 -21 20 -5 21 -15 25 -26 13z"/>
<path d="M45125 16886 c-244 -56 -444 -237 -521 -473 -26 -78 -29 -102 -29
-213 0 -92 5 -141 18 -184 l18 -58 -22 -24 c-27 -29 -18 -43 38 -59 51 -14 51
-30 1 -50 -40 -16 -57 -30 -58 -47 0 -15 40 -27 126 -38 49 -6 93 -15 97 -19
5 -5 -7 -14 -26 -20 -34 -12 -52 -34 -42 -52 9 -14 75 -27 178 -34 53 -4 99
-11 102 -15 2 -4 -19 -10 -47 -13 -98 -12 -86 -50 23 -69 92 -16 477 -16 566
0 108 20 125 56 32 68 -44 6 -80 24 -47 24 51 0 234 23 249 31 30 16 22 39
-18 55 -48 21 -35 28 91 47 54 9 103 20 109 26 18 18 -1 39 -52 56 -28 9 -51
21 -51 26 0 5 20 14 45 20 62 16 74 33 45 64 -22 23 -22 24 -5 72 22 64 31
232 16 317 -43 249 -227 458 -476 542 -98 33 -264 42 -360 20z m286 -204 c215
-60 359 -251 359 -476 0 -133 -26 -208 -81 -237 -47 -23 -49 -42 -9 -59 17 -7
30 -16 30 -20 0 -4 -30 -11 -67 -15 -102 -10 -145 -23 -141 -43 3 -15 29 -25
123 -47 27 -6 28 -8 10 -15 -11 -4 -59 -11 -107 -15 -49 -4 -94 -13 -105 -21
-17 -14 -17 -15 1 -29 11 -8 25 -15 32 -15 7 0 25 -5 41 -12 l28 -11 -30 -7
c-16 -4 -122 -8 -235 -8 -271 -1 -351 13 -190 34 66 8 100 20 100 34 0 19 -48
29 -182 40 -72 6 -136 14 -142 17 -5 4 12 14 40 23 36 12 49 22 49 36 0 15
-11 21 -55 30 -86 17 -89 19 -47 37 44 19 46 29 11 56 -57 45 -89 216 -65 343
36 181 178 333 361 384 68 19 195 17 271 -4z"/>
<path d="M39483 16757 c-95 -50 -173 -94 -173 -97 0 -3 81 -46 179 -97 162
-83 182 -91 211 -83 18 5 37 13 43 18 7 5 76 42 155 83 78 40 142 76 142 79 0
11 -346 190 -366 190 -11 -1 -97 -42 -191 -93z"/>
<path d="M39290 16434 l0 -156 150 79 c82 42 146 81 142 84 -10 10 -277 149
-285 149 -4 0 -7 -70 -7 -156z"/>
<path d="M39910 16519 c-74 -39 -138 -74 -142 -78 -3 -3 61 -41 143 -84 l149
-77 0 155 c0 85 -3 155 -7 155 -5 0 -69 -32 -143 -71z"/>
<path d="M39468 16302 l-168 -88 53 -27 c28 -14 107 -55 175 -91 l122 -65 0
180 c0 98 -3 179 -7 179 -5 0 -83 -40 -175 -88z"/>
<path d="M39710 16215 c0 -96 2 -175 5 -175 3 0 72 35 153 78 81 43 156 81
167 86 16 6 -15 26 -150 97 -93 49 -171 89 -172 89 -2 0 -3 -79 -3 -175z"/>
<path d="M39290 15953 l0 -198 178 -94 c107 -57 189 -94 207 -94 19 -1 94 34
207 94 l178 94 0 198 0 198 -107 -57 c-60 -31 -136 -72 -170 -90 -97 -53 -115
-50 -319 56 l-174 91 0 -198z"/>
<path d="M31270 16375 c0 -8 7 -15 15 -15 8 0 15 7 15 15 0 8 -7 15 -15 15 -8
0 -15 -7 -15 -15z"/>
<path d="M42208 16354 c-15 -8 -34 -27 -42 -42 -21 -41 -50 -186 -42 -216 14
-56 108 -59 149 -5 20 28 57 163 57 212 0 57 -63 84 -122 51z"/>
<path d="M42724 16363 c-14 -10 -36 -111 -28 -125 4 -6 30 -8 62 -6 45 4 60
10 79 32 23 28 29 61 14 84 -9 15 -110 27 -127 15z"/>
<path d="M36460 13688 c-113 -31 -177 -210 -139 -390 14 -67 33 -104 72 -146
81 -85 211 -53 267 65 31 65 40 234 16 314 -36 124 -118 184 -216 157z"/>
<path d="M37455 13685 c-53 -19 -102 -76 -122 -145 -22 -72 -22 -208 0 -281
58 -195 266 -209 337 -23 41 110 32 285 -21 370 -45 74 -121 105 -194 79z"/>
<path d="M40131 13689 c-136 -27 -224 -140 -224 -289 0 -126 61 -225 166 -271
120 -52 261 -17 338 85 48 63 63 118 57 209 -12 182 -163 301 -337 266z"/>
<path d="M41102 13548 l3 -133 90 -3 c109 -3 167 15 196 62 23 38 25 108 3
146 -30 50 -61 60 -183 60 l-112 0 3 -132z"/>
<path d="M35232 5134 c-60 -22 -146 -104 -179 -172 -25 -51 -28 -67 -28 -162
0 -94 3 -111 28 -161 30 -63 92 -126 159 -161 37 -19 58 -23 143 -23 86 0 107
3 150 25 67 33 131 99 163 168 23 49 27 70 27 152 0 82 -4 103 -26 151 -35 73
-85 128 -151 164 -46 26 -65 30 -148 32 -67 2 -108 -2 -138 -13z"/>
<path d="M60787 4887 c-93 -30 -146 -108 -147 -215 0 -138 79 -225 205 -226
98 -1 172 54 200 148 19 63 19 101 0 158 -37 107 -154 169 -258 135z"/>
<path d="M17770 4894 c-45 -20 -68 -41 -91 -86 -36 -70 -40 -68 161 -68 198 0
194 -2 166 63 -38 90 -144 131 -236 91z"/>
<path d="M19926 4886 c-61 -23 -89 -47 -118 -106 -104 -202 95 -415 287 -307
111 63 139 243 53 352 -45 58 -151 87 -222 61z"/>
<path d="M21738 4886 c-92 -34 -137 -91 -145 -185 -12 -129 51 -227 161 -252
95 -21 173 13 223 99 24 40 28 58 28 122 0 64 -4 82 -28 122 -48 83 -156 125
-239 94z"/>
<path d="M24661 4885 c-89 -28 -140 -106 -141 -213 0 -125 64 -208 176 -227
127 -21 238 84 238 225 0 70 -17 114 -63 163 -52 57 -133 77 -210 52z"/>
<path d="M26625 4629 c-113 -21 -158 -40 -174 -75 -49 -108 77 -171 202 -101
52 29 87 90 87 150 0 26 -3 47 -7 46 -5 -1 -53 -9 -108 -20z"/>
<path d="M38675 4645 c-5 -2 -55 -11 -110 -21 -88 -15 -104 -21 -132 -50 -36
-35 -41 -60 -18 -104 18 -35 71 -54 123 -45 96 16 162 88 162 178 0 45 -3 50
-25 42z"/>
<path d="M42110 4894 c-45 -20 -68 -41 -91 -86 -36 -70 -40 -68 161 -68 198 0
194 -2 166 63 -38 90 -144 131 -236 91z"/>
<path d="M51204 4630 c-149 -27 -184 -50 -184 -123 0 -90 142 -115 231 -40 18
15 40 45 50 68 18 40 26 116 12 114 -5 -1 -54 -9 -109 -19z"/>
<path d="M53345 4629 c-55 -10 -112 -24 -127 -30 -34 -14 -58 -50 -58 -86 0
-124 218 -116 279 10 20 41 29 128 14 126 -5 -1 -53 -9 -108 -20z"/>
<path d="M55657 4887 c-93 -30 -147 -110 -147 -217 0 -112 61 -196 161 -220
88 -21 179 18 226 98 24 40 28 58 28 122 0 64 -4 82 -28 122 -48 82 -153 124
-240 95z"/>
<path d="M58025 4896 c-52 -24 -115 -104 -115 -147 0 -5 75 -9 180 -9 l180 0
0 23 c0 12 -10 40 -23 61 -41 72 -146 106 -222 72z"/>
<path d="M59964 4891 c-48 -22 -91 -74 -100 -119 l-6 -32 181 0 c202 0 198 -2
161 70 -45 87 -147 123 -236 81z"/>
</g>
</svg>
